<?xml version="1.0" encoding="UTF-8"?>
<svg id="Layer_1" xmlns="http://www.w3.org/2000/svg" version="1.1" viewBox="0 0 2426.5 711.8">
  <!-- Generator: Adobe Illustrator 29.0.0, SVG Export Plug-In . SVG Version: 2.1.0 Build 186)  -->
  <defs>
    <style>
      .st0 {
        fill: #fff;
      }

      .st0, .st1 {
        fill-rule: evenodd;
      }
    </style>
  </defs>
  <path class="st1" d="M0,0v711.8h2426.5V0H0Z"/>
  <path class="st0" d="M2081.6,361.9h333v338h-333v-338ZM2069.5,11.9v338h-332.8V11.9h332.8ZM1379.6,11.9v338h-332.8V11.9h332.8ZM689.8,11.9v338h-332.8V11.9h332.8ZM11.9,699.9v-338h333v338H11.9ZM701.9,699.9v-338h332.8v338h-332.8ZM1391.7,699.9v-338h332.8v338h-332.8,0Z"/>
  <path class="st1" d="M1909.2,310.3c67.9,0,122.9-53.6,122.9-119.8s-55-119.8-122.9-119.8-122.9,53.6-122.9,119.8c0,66.1,55.1,119.8,122.9,119.8ZM1561.5,640.2c67.9,0,122.9-53.6,122.9-119.8s-55-119.8-122.9-119.8-122.9,53.6-122.9,119.8,55,119.8,122.9,119.8ZM583.7,308.7h86.4l-144.9-242.9-144.9,242.9h86.4l14.6-24.5h87.8l14.6,24.5h0ZM1332,61.3h-229.5v69.1h66.9v180.5h95.8v-180.5h66.8V61.3h0ZM986.5,395.6h-229.5v69.1h66.9v180.5h95.8v-180.5h66.8v-69.1ZM309.8,395.6v242.9l-149.3-86.9v89.2h-87.7v-242.9l149.3,86.9v-89.1h87.7ZM2393.6,640.7l-90.6-126.3,72.8-118.9h-99.6l-49,64.1v-64.1h-96.6v245.2h96.6v-64.5l56.5,64.5h110Z"/>
  <path class="st0" d="M1554.9,310.3c67.9,0,122.9-53.6,122.9-119.8s-55-119.8-122.9-119.8-122.9,53.6-122.9,119.8,55,119.8,122.9,119.8h0ZM234.3,215.4c-13.7,26.2-46,36.4-72.3,22.8-17.7-9.2-28.8-27.6-28.8-47.6,0-29.6,24-53.6,53.6-53.5,19.9,0,38.2,11.1,47.4,28.7l63.6-26.6c-19.7-40.4-62-68.4-111-68.4s-122.9,53.6-122.9,119.8,55,119.8,122.9,119.8,91.3-27.9,111-68.4l-63.6-26.6h0ZM2366.1,62.6v242.9l-149.3-86.9v89.2h-87.7V64.8l149.3,86.9V62.6h87.6ZM436.8,400v236.2h173.8v-55h-93.2v-22.3h93.2v-68.3h-93.2v-26.8h93.2v-63.9h-173.8ZM1287.4,400l-34.2,91.1-34.9-62.1-34.9,62.1-34.2-91.1h-75.8l85.4,229.6,59.4-62.4,59.4,62.4,85.4-229.6h-75.8,0ZM880.8,248.5h-48v57.9h-75.8V64.6h118.9c12.2,0,21.8-.6,26,0,88.4,13,81,113.3,37.3,144.6l60.8,97.2h-89.2l-30-57.9h0ZM1919.3,581.3h-48v58h-75.8v-241.8h118.9c12.2,0,21.8-.6,26,0,88.4,13,81,113.3,37.3,144.6l60.8,97.2h-89.1l-30-57.9ZM1855.6,190.6c-.5-29.6,23.2-54,52.8-54.4,29.6-.5,54,23.2,54.4,52.8,0,.6,0,1.1,0,1.7-.5,29.6-24.8,53.2-54.4,52.7-28.9-.5-52.3-23.8-52.7-52.8ZM1508,520.4c-.5-29.6,23.2-54,52.8-54.4,29.6-.5,54,23.2,54.4,52.8,0,.6,0,1.1,0,1.7-.5,29.6-24.8,53.2-54.4,52.7-28.9-.5-52.3-23.8-52.7-52.8ZM515.9,226.2l9.3-15.6,9.3,15.6h-18.7Z"/>
  <path class="st1" d="M1501.3,190.6c-.5-29.6,23.2-54,52.8-54.4,29.6-.5,54,23.2,54.4,52.8,0,.6,0,1.1,0,1.7-.5,29.6-24.8,53.2-54.4,52.7-28.9-.5-52.3-23.8-52.7-52.8ZM833.5,120.3v64.3h28.2c8.9,0,34.2-5.2,34.2-33.4s-26.7-30.8-34.2-30.8h-28.2ZM1872.1,453.2v64.3h28.2c8.9,0,34.2-5.2,34.2-33.4s-26.7-30.8-34.2-30.8h-28.2Z"/>
</svg>