<?xml version="1.0" encoding="utf-8"?>
<!-- Generator: Adobe Illustrator 25.3.1, SVG Export Plug-In . SVG Version: 6.00 Build 0)  -->
<svg version="1.1" id="Layer_1" xmlns="http://www.w3.org/2000/svg" xmlns:xlink="http://www.w3.org/1999/xlink" x="0px" y="0px"
	 viewBox="0 0 221.5 87" style="enable-background:new 0 0 221.5 87;" xml:space="preserve">
<style type="text/css">
	.st0{fill:#175770;}
	.st1{fill:#F0E933;}
	.st2{fill:#FFFFFF;}
	.st3{enable-background:new    ;}
	.st4{fill:#F6F7FB;}
</style>
<g id="deskbox" transform="translate(-62.885 -51.6)">
	<g id="Group_98" transform="translate(112.885 75.6)">
		<path id="Path_8" class="st0" d="M167.9,14.7c-0.6-0.8-1.2-1.5-1.9-2.2c-1.4-1.6-3-3-4.6-4.4c0.6-0.6,1.3-1.2,2-1.7
			c1.4-1.2,2.2-3,2-4.9c-0.4-3.4-3.4-5.9-5.8-8C156.8-9.1,154-11,150-11c-1.7,0-3.4,0.4-5,1.1c-1,0.5-1.9,1.2-2.6,2h-0.1
			c-2.4-2.2-5.5-3.5-8.7-3.5c-1.4,0-2.9,0.3-4.2,0.8c-1.6,0.7-3,1.7-4.2,2.9c-4.7-3.6-10.9-4.6-16.5-2.6c-3.6,1.5-6.8,3.8-9.3,6.7
			c-0.1,0.1-0.1,0.1-0.1,0.1c-0.5-0.5-1-1-1.4-1.5C98-5,98-5.2,98.1-5.3c0.7-1.5,0.5-3.2-0.4-4.6V-10c-1.5-2.1-3.2-4-5.2-5.7
			c-1.7-1.8-3.6-3.3-5.8-4.6c-1.5-0.8-3.2-1.3-4.9-1.3c-4.4,0.1-8.4,2.6-10.4,6.5c-0.8,1.6-1.7,3.5-2.5,5.6
			c-0.1-0.2-0.2-0.4-0.3-0.5V-10c-3.1-4.9-9.5-11.5-15.8-11.5c-2.2,0-4.3,0.6-6.1,1.8c-1.9,1.1-3.3,2.8-4.3,4.7
			c-1.2,2.3-2.2,4.7-3.1,7.1c-5.4-3.9-12.2-5-18.6-1.6c-2.1,1.1-3.9,2.7-5.2,4.6c-2.9-2.9-6.1-5.4-10.4-5.6c-0.8,0-1.6,0-2.4,0.1
			c-2.8-4-6.4-7.4-10.6-9.8c-1.5-0.8-3.2-1.3-4.9-1.3c-2.2,0-4.3,0.6-6.2,1.8c-1.8,1.2-3.2,2.8-4.2,4.7c-0.8,1.6-1.6,3.2-2.2,4.8
			c-0.4-0.1-1-0.2-1.4-0.2c-0.6-0.1-1.2-0.1-1.7-0.1c-1.8,0-3.5,0.4-5.1,1.1c-3.3,1.5-6.1,3.7-8.3,6.5c-2.1,2.9-3.7,6.2-4.7,9.6
			c-1.2,3.8-1.3,7.7-0.4,11.6c1.1,4.1,4.1,7.2,7.1,10.1c3.2,3.2,6.9,6.4,11.7,6.5c4.4,6.9,11.6,13.1,19.6,15.2
			c3.2,0.8,6.4,1.2,9.7,1.1c6.5,0,12.9-1.1,19.4-1.1c2,0,4,0.1,5.8,0.2c2.6,0.4,6.4,0.6,8.3,2.6c2.4,2.3,4.8,5.8,8.4,5.8
			c0.9,0,1.9-0.2,2.8-0.6c0.5-0.2,2-1,4.3-3.9c1.1-1.5,2.1-3.1,2.8-4.8c1.6-4,0.8-7.8-1-11.3c-0.7-1.3-1.5-2.6-2.5-3.7
			c0.8,0.3,1.6,0.5,2.5,0.5c1,0,1.9-0.3,2.8-0.8c1.6,1.6,3.6,2.8,5.8,3.5c1.3,0.4,2.6,0.6,4,0.6c3.6,0,7-1.4,9.5-4
			c0.5-0.5,0.9-1,1.3-1.6c1.7,1,3.6,1.5,5.5,1.5c0.7,0,1.3,0,2-0.2c1.4,0.6,2.9,0.9,4.4,0.8c2.1,0,4.1-0.5,5.9-1.4
			c2.6-1.3,4.9-3.1,6.7-5.4c1.4,1.3,2.8,2.5,4.1,3.7c2.8,2.4,6.4,3.7,10.1,3.8c1.9,0,3.8-0.4,5.6-1c1-0.3,1.9-0.8,2.8-1.3
			c0.8-0.6,1.7-1.2,2.6-1.7c0.9,1,1.9,1.8,3,2.5c2.9,1.6,6.5,1.7,9.5,0.2c1-0.6,2-1.4,2.8-2.2c2.5,2.3,5.7,3.5,9.1,3.5
			c1.6,0,3.1-0.3,4.6-0.8c3.6-1.3,6.9-3.3,9.7-5.8c1.5-1.4,2.7-3.2,3.4-5.2l1.4-4.5C169.3,18,169,16.1,167.9,14.7z"/>
		<path id="Path_9" class="st1" d="M81.8-21.5c1.7,0,3.4,0.4,4.9,1.3c2.1,1.2,4.1,2.8,5.8,4.6c2,1.7,3.7,3.6,5.2,5.7v0.1
			c0.9,1.4,1,3.1,0.4,4.6c0,0.1-0.1,0.3-0.2,0.4c0.4,0.5,0.9,1,1.4,1.5c0.1-0.1,0.1-0.1,0.1-0.1c2.5-2.9,5.7-5.2,9.3-6.7
			c1.9-0.7,3.8-1,5.8-1c1,0,2,0.1,2.9,0.2c2.8,0.4,5.5,1.6,7.7,3.4c1.2-1.2,2.6-2.2,4.2-2.9c1.3-0.6,2.8-0.9,4.2-0.8
			c3.2,0.1,6.4,1.3,8.7,3.5h0.1c0.8-0.8,1.7-1.5,2.6-2c1.5-0.8,3.2-1.2,5-1.1c4,0,6.8,1.9,9.5,4.5c2.4,2,5.5,4.6,5.8,8
			c0.2,1.9-0.5,3.7-2,4.9c-0.7,0.5-1.4,1.1-2,1.7c1.7,1.1,3.2,3,4.6,4.4c0.7,0.7,1.3,1.4,1.9,2.2c1,1.3,1.3,3.1,0.8,4.7l-1.4,4.5
			c-0.7,2-1.9,3.7-3.4,5.2c-2.8,2.6-6.1,4.6-9.7,5.8c-1.5,0.5-3,0.8-4.6,0.8c-3.4,0-6.6-1.3-9.1-3.5c-0.8,0.9-1.8,1.6-2.8,2.2
			c-1.3,0.7-2.8,1-4.3,1c-1.8,0-3.5-0.5-5.1-1.3c-1.1-0.7-2.2-1.5-3-2.5c-0.9,0.5-1.8,1.1-2.6,1.7c-0.9,0.5-1.8,1-2.8,1.3
			c-1.8,0.6-3.7,1-5.6,1c-3.7-0.1-7.3-1.4-10.1-3.8c-1.3-1.1-2.8-2.3-4.1-3.7c-1.8,2.3-4.1,4.1-6.7,5.4c-1.8,1-3.9,1.4-5.9,1.4
			c-1.5,0-3-0.3-4.4-0.8c-0.6,0.1-1.3,0.2-2,0.2c-1.9,0-3.8-0.5-5.5-1.5c-0.4,0.6-0.8,1.1-1.3,1.6c-2.5,2.6-5.9,4-9.5,4
			c-1.3,0-2.7-0.2-4-0.6c-2.2-0.7-4.2-1.9-5.8-3.5c-0.8,0.5-1.8,0.8-2.8,0.8c-0.9,0-1.7-0.2-2.5-0.5c0.9,1.1,1.8,2.4,2.5,3.7
			c2,3.4,2.3,7.6,1,11.3c-0.7,1.7-1.7,3.3-2.8,4.8c-1.1,1.6-2.6,3-4.3,3.9c-0.9,0.4-1.8,0.6-2.8,0.6c-3.6,0-6-3.5-8.4-5.8
			c-1.9-2-5.8-2.2-8.3-2.6c-1.8-0.2-3.7-0.2-5.8-0.2c-6.5,0-12.9,1.1-19.4,1.1c-3.3,0-6.5-0.3-9.7-1.1c-8-2-15.2-8.3-19.6-15.2
			c-4.8-0.2-8.5-3.4-11.7-6.5c-3-2.9-6-6-7.1-10.1c-1-3.8-0.8-7.8,0.4-11.6c1-3.5,2.6-6.7,4.7-9.6c2.1-2.9,5-5.1,8.3-6.5
			c1.6-0.8,3.3-1.1,5.1-1.1c0.6,0,1.2,0,1.7,0.1c0.4,0.1,1,0.2,1.4,0.2c0.7-1.6,1.4-3.2,2.2-4.8c1-1.9,2.4-3.5,4.2-4.7
			c1.8-1.2,4-1.8,6.2-1.8c1.7,0,3.4,0.4,4.9,1.3c4.2,2.4,7.8,5.8,10.6,9.8c0.6-0.1,1.3-0.1,1.9-0.1h0.5c4.4,0.2,7.5,2.7,10.4,5.6
			c1.4-1.9,3.2-3.5,5.2-4.6c2.4-1.3,5.1-2,7.9-2c3.9,0,7.6,1.3,10.7,3.7c0.9-2.4,1.9-4.8,3.1-7.1c1-1.9,2.5-3.6,4.3-4.7
			c1.8-1.2,3.9-1.8,6.1-1.8c6.3,0,12.7,6.6,15.8,11.5v0.1c0.1,0.2,0.2,0.3,0.3,0.5c0.8-2.1,1.7-4,2.5-5.6
			C73.6-19,77.5-21.5,81.8-21.5 M81.8-23.9c-5.3,0.1-10.1,3.1-12.5,7.8c-0.3,0.6-0.6,1.1-0.8,1.7c-3.6-4.4-9.4-9.6-15.6-9.6
			c-2.6,0-5.2,0.8-7.4,2.2c-2.2,1.4-3.9,3.3-5.2,5.6c-0.8,1.4-1.4,3-2.2,4.6c-2.9-1.6-6.2-2.5-9.6-2.5c-3.1,0-6.2,0.8-9,2.3l0,0
			c-1.6,0.9-3,2-4.3,3.3c-2.8-2.4-5.9-4.3-10.1-4.5H3.7c-2.8-3.8-6.4-7-10.6-9.4c-1.8-1.1-3.9-1.6-6.1-1.6c-2.6,0-5.2,0.8-7.5,2.2
			h-0.1c-2.1,1.4-3.8,3.3-5,5.6c-0.6,1.1-1.1,2.2-1.6,3.2c-0.5,0-1.1-0.1-1.6-0.1c-2.1,0-4.2,0.4-6.1,1.3c-3.6,1.6-6.7,4.1-9.2,7.2
			l0,0c-2.3,3.1-4,6.6-5.1,10.4c-1.3,4.2-1.4,8.6-0.4,12.9c1.3,4.6,4.4,8,7.8,11.3c3.2,3.1,7,6.5,12.1,7.1
			c5.2,7.6,12.7,13.2,20.4,15.2c3.4,0.8,6.8,1.2,10.3,1.2c3.4,0,6.7-0.3,9.9-0.5c3.1-0.3,6.4-0.5,9.5-0.5c1.8,0,3.7,0.1,5.5,0.2
			c0.3,0.1,0.6,0.1,0.9,0.1c2.1,0.2,4.9,0.6,6,1.7l0.1,0.1c0.4,0.4,0.9,0.9,1.4,1.4c2.2,2.3,4.8,5.1,8.7,5.1c1.3,0,2.5-0.3,3.7-0.8
			c0.1,0,0.1-0.1,0.2-0.1h0.1c0.7-0.4,2.6-1.3,5.1-4.5c1.3-1.6,2.4-3.4,3.2-5.4c1.6-4.3,1.2-9.1-1-13.2c0.1,0,0.2-0.1,0.3-0.1
			c1.6,1.3,3.5,2.4,5.5,3c1.5,0.5,3.1,0.7,4.7,0.7c4.2,0,8.3-1.7,11.1-4.8c0.1-0.1,0.1-0.2,0.2-0.2c1.5,0.6,3.2,0.9,4.9,0.9
			c0.5,0,1.1,0,1.7-0.1c1.5,0.5,3,0.8,4.6,0.8c2.4,0,4.8-0.6,7-1.7c2.1-1.1,4-2.5,5.8-4.1c0.9,0.8,1.7,1.5,2.4,2.1
			c3.3,2.7,7.4,4.2,11.7,4.3c2.2,0,4.3-0.4,6.4-1.1c1.1-0.4,2.2-0.9,3.2-1.4l0.1-0.1c0.4-0.2,0.7-0.5,1.1-0.7
			c0.7,0.6,1.4,1.1,2.2,1.6c1.9,1.1,4.1,1.6,6.3,1.6c1.9,0,3.8-0.4,5.5-1.3c0.6-0.3,1.2-0.7,1.8-1.2c2.6,1.8,5.8,2.8,9,2.8
			c1.8,0,3.6-0.3,5.3-0.9c4-1.4,7.6-3.5,10.7-6.4c1.8-1.7,3.2-3.7,4-6.1v-0.1l1.4-4.5c0.8-2.3,0.4-4.9-1.1-6.8
			c-0.6-0.9-1.3-1.8-2.2-2.6l-0.1-0.1l-1.4-1.4c-0.4-0.4-0.8-0.8-1.3-1.3c2-1.7,3-4.3,2.6-6.9C167.4-3,164-5.9,161.5-8l-0.3-0.2
			c-2.7-2.5-6.1-5.1-11.1-5.1c-2.1,0-4.1,0.5-6,1.4c-0.6,0.3-1.2,0.7-1.8,1.1c-2.5-1.8-5.6-2.8-8.7-2.9c-1.8,0-3.5,0.4-5.2,1.1
			c-1.2,0.5-2.4,1.2-3.4,2c-2.2-1.3-4.6-2.2-7.1-2.6c-1.1-0.2-2.2-0.3-3.4-0.3c-2.3,0-4.6,0.4-6.7,1.2h-0.1
			c-2.5,1.1-4.8,2.5-6.9,4.2c-0.1-0.9-0.4-1.8-0.8-2.6c0-0.2-0.1-0.3-0.2-0.5c-1.6-2.3-3.4-4.3-5.5-6.1l-0.4-0.4
			c-1.7-1.8-3.7-3.3-5.9-4.6C86.1-23.3,84-23.9,81.8-23.9L81.8-23.9z"/>
	</g>
	<g id="Group_99" transform="translate(120.724 81.727)">
		<path id="Path_10" class="st1" d="M22,20.8c-11.9-2-20.2,1.7-31.3,3.4c-3.4,0.6-7.3,0.7-10.4-1.2c-2.9-1.8-4.2-5.2-4.6-8.4
			c-0.4-4.4,0.2-8.8,1.7-12.9c2.4-7.3,5.5-14.3,9.1-21c0-0.1,0-0.3-0.1-0.4c-1-1.4-2.3-2.6-3.8-3.4c-3.2-1.8-7.4,0.1-9,3.2
			c-1.5,3-2.8,6.1-3.8,9.3c-1.3-1.2-2.9-1.9-4.6-2.2c-1.4-0.2-2.8,0.1-4.1,0.7c-2.6,1.1-4.8,2.8-6.4,5.1c-1.8,2.5-3.2,5.2-4,8.1
			c-0.9,3-1,6.1-0.2,9.1c1,4.1,4.7,7.5,8.4,7.9h0.1c2.4,0.2,4.9-0.6,6.8-2.2c0.1,5.4,2.6,10.4,6.8,13.8c6.7,5.1,15,5.1,22.9,4.4
			c6.4-0.6,12.7-1.2,19-0.5c11,1.3,14,5.2,14.9,7.5c0.3,0.8,1.2,1.1,2,0.8c0.1,0,0.1-0.1,0.2-0.1c1.4-0.6,4-4,4.8-6.1
			C38.1,30.5,35.6,23.1,22,20.8z M-33,2.5c-0.2,0.4-0.6,1.7-0.8,2c-1.6,3.8-3.7,6.5-5.2,6.4c-0.7,0-1.2-0.7-1.4-1.7
			c-0.4-1.8-0.1-5.1,1.1-8.3c0.7-2,1.7-3.9,2.9-5.6c0.6-0.9,1.5-1.6,2.6-1.8c1.3,0,1.6,2,1.6,2.9C-32.5-1.6-32.9,0.4-33,2.5z"/>
		<path id="Path_11" class="st1" d="M-14.8-8c-2.1,2.4-3.7,5.3-4.7,8.3c-1,2.9-1.1,6.1-0.2,9.1c1.2,4,5.6,8,10.9,8.6
			c5.2,0.6,10.9-1.1,15.4-3.7c0.8,1,1.9,1.8,3,2.5c5.1,2.7,11.3,2.3,16-1c3.3-2.1,5-5.9,4.5-9.7c-0.4-2.4-1.7-4.7-3.5-6.3
			c-1.5-1.2-3.1-2.4-4.7-3.4C21-4.1,18.7-5.1,19-6.2C19.1-6.7,19.5-7,20-7c2-0.4,4,0.7,4.7,2.6C24.8-4.1,25-4,25.3-4
			c5.2-0.2,6.4-5.4,3.8-7.7c-4.9-4.4-11.4-2.8-14-1.4c-3.2,1.7-4.9,4.2-5.3,6.3c-0.5,2.8-0.1,5.3,3.6,8c4.6,3.4,5.7,4.6,6.3,6.2
			c0.3,0.7,0,1.5-0.7,1.7c-0.3,0.1-0.6,0.1-0.8,0.1c-1.4-0.2-3.2-2.8-3.8-5.9c-0.1-0.2-0.2-0.4-0.4-0.4c-2.5-0.6-5.2,0.1-7.1,1.7
			c-1.5,1.1-2.4,3-2.3,4.9c-4.4,1.7-9,2.2-12.1-0.1c-1-0.6-1.6-1.7-1.7-2.8c0,0,11.4-1.3,14.1-6.9c1.4-2.8,1.2-6.1-0.5-8.7
			c-1.6-2.6-4.3-4.3-7.4-4.6C-7-13.8-11-12.1-14.8-8z M-1.9-7.1c0.4,0,0.7,0.1,1,0.4c0.8,1.1,2.2,4.2-1.4,6.1
			c-2.4,1.2-6.1,0.8-6.1,0.8C-7.4-3.6-3.7-6.8-1.9-7.1L-1.9-7.1z"/>
		<path id="Path_12" class="st1" d="M57.4,8c-0.1-0.1-0.2-0.1-0.2,0c-2.9,2.4-6.8,0.6-8.6-2.2c-0.1-0.2-0.2-0.4-0.4-0.6
			c0.1-0.1,0.2-0.1,0.2-0.2c1.4-0.5,2.8-1.2,4-2c2-1.2,3.7-2.7,5.1-4.5c1.3-1.8,1.8-4.1,1.4-6.3c-0.1-1.7-0.7-3.3-1.8-4.6
			c-0.5-0.8-1.6-1-2.3-0.4c-0.2,0.1-0.4,0.3-0.5,0.5c-2.2,4.1-5.1,7.8-8.7,10.7c-0.7,0.6-1.5,1.1-2.3,1.6c0-0.1,0.1-0.2,0.1-0.4
			c0.5-1.3,1-2.6,1.4-4c1.7-4.5,3.8-8.7,5.9-13.1c0.3-0.7,0.7-1.4,1.1-2c0-0.1,0-0.3-0.1-0.4c-1-1.5-2.3-2.6-3.9-3.4
			c-3.2-1.8-7.4,0.1-9,3.2c-3,6-5.1,12.4-6.2,19c-0.5,2.8-0.7,5.7-0.8,8.6c-0.2,3.2,1.1,6.3,3.4,8.6c0.9,0.9,2,1.5,3.2,1.9
			c0.1,0,0.2,0.1,0.4,0.1h0.1c0.6,0.1,1.1-0.2,1.2-0.8c0-0.1,0-0.2,0-0.4c-0.2-1.9-0.2-3.8,0-5.7v-0.4c0.5,1.2,1.1,2.4,1.8,3.6
			c1.6,2.9,4.3,5.7,7.1,6.5c3.1,1,6.5,0.1,8.7-2.2c1.2-1.3,1.9-2.9,2-4.6c0.1-1.9-0.5-3.8-1.6-5.3C58,8.7,57.7,8.3,57.4,8z"/>
		<path id="Path_13" class="st1" d="M79.8-13L79.8-13c-0.8,0-1.5,0-2.2,0.1c1-2,2-4.2,3.2-6.5c0.1-0.1,0.1-0.3,0-0.4
			c-1-1.5-2.4-2.6-4-3.4c-3.2-1.8-7.3,0.1-8.9,3.2c-4.3,8.6-6.7,18-7.1,27.6c0,1.7,0.3,3.5,0.8,5.2c0.6,1.3,1.5,2.5,2.6,3.4
			c1.4,1.4,4,1.6,6.4,0.8c2.2,1.4,5.1,1.5,7.4,0.2c2.4-1.1,4.4-2.8,5.9-5C85.7,9.7,87.1,6.9,88,4c0.9-3,0.9-6.1,0.2-9.1
			C87.1-9.2,83.5-12.6,79.8-13z M77.8,4.1c-0.7,2-1.7,3.8-2.9,5.5c-1.1,1.4-2.8,2.2-3.5,1.4c-1.2-1.3-1-5.3,0.6-9.6
			c0.1-0.3,0.2-0.6,0.4-0.8c1.6-4,3.8-6.6,5.2-6.5c0.8,0.2,1.4,0.9,1.4,1.7C79.3-1.4,78.9,1.5,77.8,4.1L77.8,4.1z"/>
		<path id="Path_14" class="st1" d="M150.3,4.9c-3.2,2.6-9.5,8.7-13.7,6.8c-1-0.4-1.7-2-2.2-3.8c3-6.7,7.5-12.7,13.1-17.4
			c0.3-0.2,0.4-0.5,0.4-0.8c-0.1-0.7-0.6-1.3-1.2-1.6c-2.1-1.5-4.8-1.8-7.2-0.8c-2.6,1.3-5.3,6.6-7.5,11c-0.2-2.6-0.1-5.2,0.2-7.7
			c0.1-0.8,0.2-1.4-0.4-1.9c-3.2-2.6-6.2-2.8-8.3-1.9c-1,0.4-2,1-2.6,1.9c-0.8,1.1-1.7,2.6-1.4,4c0.6,5.2,2.2,10.3,4.6,14.9
			c-2.5,3.8-5.4,6.8-7.8,7.5c-0.4,0.1-0.6,0.4-0.5,0.6c0.8,2.2,4.6,3.5,6.8,2.2c2-1.3,3.7-3.1,5.1-5.1c0.7,0.9,1.5,1.8,2.3,2.6
			c2.5,2.9,6.5,3.9,10.1,2.6c2.9-1,5.5-2.6,7.8-4.7c1-0.9,1.8-2.1,2.2-3.4l1.6-4.4C151.7,5,150.8,4.4,150.3,4.9z"/>
		<path id="Path_15" class="st1" d="M118.2-2.5c0.2-4.6-2.2-9.7-9.3-11c-2.1-0.3-4.2-0.1-6.2,0.5c-2.9,1.1-5.4,3-7.4,5.3
			C93.2-5,91.6-2.1,90.6,1c-1,3.1-1.1,6.4-0.2,9.5c1.4,4.4,5.1,7.6,9.7,8.3h0.1c6.9,0.6,12.7-5.2,15.5-10.9
			C117.2,4.6,118,1.1,118.2-2.5z M107.7,4.9c-1.6,2.9-3.4,4.9-4.8,4.7c-0.6,0-1.2-0.5-1.4-1.6c-0.5-1.8-0.1-4.8,1.2-8
			c0.7-1.9,1.8-3.7,3.1-5.2c1-1.1,2-1.8,2.8-1.7c0.7,0,1.3,0.5,1.4,1.2c0.1,0.3,0.2,0.6,0.2,1C110.2-1.4,109.3,1.9,107.7,4.9
			L107.7,4.9z"/>
	</g>
</g>
<g id="fizzbox-logo-White" transform="translate(224.273 100.366)">
	<g id="Group_186" transform="translate(-39.128 -7.513)">
		<g id="_Group_" transform="translate(0 0.033)">
			<path id="_Compound_Path_" class="st2" d="M-44.1-20.8c-0.2,0.4-0.3,0.8-0.3,1.2v0.3h1.1c1,0,1.6,0.5,1.6,1.4
				c0,0.9-0.5,1.4-1.6,1.4h-1.1v5.9c0,0.5-0.2,1-0.5,1.3c-0.7,0.6-1.8,0.6-2.5,0c-0.3-0.3-0.5-0.8-0.5-1.3v-5.9h-0.6
				c-1,0-1.6-0.5-1.6-1.4c0-0.9,0.5-1.4,1.6-1.4h0.6c0-1.2,0.4-2.4,1.1-3.3c0.8-0.8,1.8-1.3,3-1.3l0,0c0,0,0.4,0,0.9,0
				c0.4,0,0.9,0.1,1.2,0.3c0.3,0.2,0.4,0.6,0.4,1c0,0.4-0.1,0.7-0.4,1c-0.3,0.2-0.6,0.4-1,0.4l-0.5,0
				C-43.5-21.3-43.8-21.1-44.1-20.8z"/>
		</g>
		<g id="_Group_2" transform="translate(10.806 0.11)">
			<path id="_Compound_Path_2" class="st2" d="M-49.5-21.1c-0.3-0.3-0.5-0.8-0.5-1.2c0-0.5,0.2-0.9,0.5-1.2c0.4-0.3,0.9-0.5,1.4-0.5
				c0.5,0,1,0.1,1.4,0.5c0.4,0.3,0.6,0.8,0.5,1.2c0,0.5-0.2,0.9-0.5,1.2C-47.5-20.5-48.6-20.5-49.5-21.1z M-49.3-9.5
				c-0.3-0.3-0.5-0.7-0.5-1.2v-6.7c0-0.5,0.2-0.9,0.5-1.2c0.7-0.5,1.7-0.5,2.5,0c0.3,0.3,0.5,0.7,0.5,1.2v6.7c0,0.5-0.2,0.9-0.5,1.2
				C-47.5-9-48.5-9-49.3-9.5L-49.3-9.5z"/>
		</g>
		<g id="_Group_3" transform="translate(16.763 5.16)">
			<path id="_Compound_Path_3" class="st2" d="M-40.5-15.5c0,0.9-0.5,1.3-1.6,1.3h-6.2c-0.4,0-0.8-0.1-1.1-0.4
				c-0.3-0.3-0.4-0.7-0.4-1.1c0-0.5,0.2-0.9,0.5-1.2l4.2-4.5h-3.2c-1.1,0-1.6-0.4-1.6-1.3c0-0.9,0.5-1.3,1.6-1.3h6
				c0.4,0,0.8,0.1,1.1,0.4c0.3,0.3,0.4,0.7,0.4,1.1c0,0.4-0.2,0.9-0.5,1.2l-4.2,4.5h3.5C-41.1-16.8-40.5-16.4-40.5-15.5z"/>
		</g>
		<g id="_Group_4" transform="translate(28.045 5.16)">
			<path id="_Compound_Path_4" class="st2" d="M-40.5-15.5c0,0.9-0.5,1.3-1.6,1.3h-6.2c-0.4,0-0.8-0.1-1.1-0.4
				c-0.3-0.3-0.4-0.7-0.4-1.1c0-0.5,0.2-0.9,0.5-1.2l4.2-4.5h-3.2c-1.1,0-1.6-0.4-1.6-1.3s0.5-1.3,1.6-1.3h6c0.4,0,0.8,0.1,1.1,0.4
				c0.3,0.3,0.4,0.7,0.4,1.1c0,0.4-0.2,0.9-0.5,1.2l-4.2,4.5h3.5C-41.1-16.8-40.5-16.4-40.5-15.5z"/>
		</g>
		<g id="Group_185" transform="translate(41.224)">
			<path id="Path_673" class="st2" d="M-43.4-18.5c-0.7-0.4-1.5-0.6-2.3-0.6c-0.7,0-1.5,0.2-2.1,0.6c-0.5,0.3-0.8,0.7-1.1,1.1V-23
				c0-0.5,0-0.7-0.1-0.8c-0.1-0.1-0.2-0.2-0.4-0.2c-0.3,0-0.5,0.2-0.6,0.6v13.8c0,0.1,0.1,0.3,0.2,0.4c0.1,0.1,0.2,0.2,0.4,0.2
				c0.2,0,0.5-0.1,0.5-0.6v-1.1c0.3,0.5,0.6,0.9,1.1,1.2c0.6,0.4,1.4,0.6,2.1,0.6c0.8,0,1.6-0.2,2.3-0.6c0.7-0.4,1.2-1.1,1.5-1.8
				c0.4-0.8,0.6-1.8,0.5-2.7c0-0.9-0.2-1.8-0.5-2.6C-42.2-17.5-42.7-18.1-43.4-18.5z M-42.5-14.1c0.1,1.1-0.2,2.1-0.9,3l0,0
				c-0.6,0.7-1.5,1.1-2.4,1.1c-0.9,0-1.8-0.3-2.4-1c-1.1-1.8-1.1-4.2,0-6c0.6-0.7,1.5-1.1,2.4-1c0.9,0,1.8,0.3,2.4,1
				C-42.7-16.2-42.4-15.2-42.5-14.1L-42.5-14.1z"/>
			<path id="Path_674" class="st2" d="M-32.6-18.5c-1.9-1.3-4.5-0.7-5.8,1.2c-0.1,0.2-0.2,0.4-0.3,0.5c-0.4,0.8-0.6,1.7-0.5,2.6
				c0,0.9,0.2,1.8,0.5,2.7c1,2.1,3.5,3,5.6,2.1c0.9-0.4,1.7-1.2,2.1-2.1c0.7-1.7,0.7-3.6,0-5.3C-31.4-17.5-31.9-18.1-32.6-18.5z
				 M-31.6-14.1c0.1,1.1-0.2,2.1-0.8,3c-0.6,0.7-1.5,1.1-2.4,1c-0.9,0.1-1.8-0.3-2.4-1c-0.6-0.9-0.9-1.9-0.8-3
				c-0.1-1.1,0.2-2.1,0.9-3c1.2-1.3,3.2-1.4,4.6-0.2c0.1,0.1,0.1,0.1,0.2,0.2C-31.9-16.2-31.6-15.2-31.6-14.1L-31.6-14.1z"/>
			<path id="Path_675" class="st2" d="M-20.3-9.9l-3.6-4.1l3.5-4c0.1-0.1,0.2-0.3,0.2-0.4c0-0.1-0.1-0.3-0.2-0.4
				c-0.2-0.2-0.5-0.2-0.7,0c0,0,0,0,0,0.1l-3.4,4l-3.4-4c-0.2-0.2-0.5-0.3-0.7-0.1c0,0,0,0-0.1,0.1c-0.1,0.1-0.2,0.2-0.2,0.4
				c0,0.2,0.1,0.3,0.2,0.4l3.4,4l-3.6,4.1c-0.1,0.1-0.2,0.3-0.2,0.4c0,0.1,0.1,0.3,0.2,0.4c0.2,0.2,0.5,0.2,0.7,0c0,0,0,0,0.1-0.1
				l3.5-4.1l3.5,4.1c0.1,0.1,0.3,0.2,0.4,0.2c0.1,0,0.3-0.1,0.4-0.2c0.1-0.1,0.2-0.2,0.2-0.4C-20.1-9.7-20.2-9.8-20.3-9.9z"/>
		</g>
		<path id="Path_676" class="st2" d="M27.9-9h-3.7c-0.2,0-0.4-0.2-0.4-0.4v0v-3.7c0-0.2,0.2-0.4,0.4-0.4l0,0h3.7
			c0.2,0,0.4,0.2,0.4,0.4v0v3.7C28.3-9.2,28.1-9,27.9-9L27.9-9z M24.6-9.8h2.8v-2.8h-2.8V-9.8z"/>
	</g>
</g>
<g class="st3">
	<path class="st4" d="M119.9,76.9c0.6,0.7,0.9,1.6,0.9,2.6c0,1-0.3,1.9-0.9,2.6c-0.6,0.7-1.4,1-2.3,1c-1,0-1.8-0.4-2.3-1.1l-0.1,1
		h-1.1V72.5h1.2v4.4c0.6-0.7,1.4-1.1,2.3-1.1C118.5,75.9,119.3,76.2,119.9,76.9z M119,81.3c0.4-0.5,0.6-1.1,0.6-1.8
		s-0.2-1.3-0.6-1.8c-0.4-0.5-0.9-0.7-1.6-0.7c-0.5,0-0.9,0.2-1.3,0.5s-0.6,0.8-0.8,1.3v1.5c0.1,0.5,0.4,1,0.8,1.3
		c0.4,0.3,0.8,0.5,1.3,0.5C118,82,118.6,81.8,119,81.3z"/>
	<path class="st4" d="M128.6,83.2c0,1-0.3,1.8-0.9,2.5c-0.6,0.6-1.4,0.9-2.5,0.9c-0.9,0-1.7-0.2-2.4-0.7v-1.3
		c0.7,0.6,1.5,0.9,2.5,0.9c0.7,0,1.2-0.2,1.5-0.6c0.3-0.4,0.5-1,0.5-1.7v-1.1c-0.6,0.7-1.3,1-2.2,1c-0.8,0-1.4-0.3-2-0.8
		c-0.5-0.5-0.8-1.2-0.8-2V76h1.2v4.2c0,0.5,0.2,0.9,0.5,1.3c0.4,0.4,0.8,0.5,1.3,0.5c0.5,0,1-0.2,1.3-0.5c0.4-0.3,0.5-0.8,0.5-1.3
		V76h1.2V83.2z"/>
</g>
</svg>
