<?xml version="1.0" encoding="utf-8"?>
<!-- Generator: Adobe Illustrator 21.1.0, SVG Export Plug-In . SVG Version: 6.00 Build 0)  -->
<svg version="1.1" id="Layer_1" xmlns="http://www.w3.org/2000/svg" xmlns:xlink="http://www.w3.org/1999/xlink" x="0px" y="0px"
	 viewBox="0 0 762 159" style="enable-background:new 0 0 762 159;" xml:space="preserve">
<style type="text/css">
	.st0{fill:#414042;}
	.st1{fill:#F7933D;}
</style>
<g>
	<g>
		<g>
			<path class="st0" d="M719.6,116.4v32.9h32.9v-32.9H719.6z M747.5,144.3h-22.9v-22.9h22.9V144.3z"/>
		</g>
	</g>
	<g>
		<path class="st1" d="M64.3,48.1c-1.7,2.3-2.6,5.4-2.6,9.3v2.2h9.9c9.6,0,14.4,3.9,14.4,11.7c0,7.9-4.8,11.9-14.4,11.9h-9.9v51.1
			c0,4.9-1.5,8.7-4.6,11.2s-6.9,3.8-11.5,3.8s-8.4-1.3-11.5-3.8s-4.6-6.3-4.6-11.2V83.2h-5.2c-9.6,0-14.4-4-14.4-11.9
			c0-7.8,4.8-11.7,14.4-11.7h5.2C29.8,48,33.3,39,40,32.4s15.7-10.3,27.2-11.1l4.7-0.4c1-0.1,2.2-0.2,3.8-0.2c5.2,0,8.9,1,11.2,2.9
			c2.3,1.9,3.4,4.7,3.4,8.3c0,3.6-1.1,6.4-3.2,8.4c-2.2,2-5.1,3.1-8.8,3.3L73.6,44C69.1,44.4,66.1,45.8,64.3,48.1z"/>
		<path class="st1" d="M120.7,40.9c-3.2-2.8-4.8-6.6-4.8-11.3s1.6-8.4,4.8-11.2c3.2-2.8,7.5-4.2,12.9-4.2c5.3,0,9.6,1.4,12.8,4.2
			s4.9,6.5,4.9,11.2s-1.6,8.5-4.8,11.3s-7.5,4.2-12.9,4.2S123.9,43.7,120.7,40.9z M122.1,145.8c-3.1-2.5-4.6-6.2-4.6-11.1V72.6
			c0-4.9,1.5-8.6,4.6-11.1s6.9-3.7,11.5-3.7s8.4,1.2,11.5,3.7s4.6,6.2,4.6,11.1v62.1c0,4.9-1.5,8.6-4.6,11.1s-6.9,3.7-11.5,3.7
			S125.2,148.3,122.1,145.8z"/>
		<path class="st1" d="M263.6,136.5c0,7.9-4.8,11.9-14.4,11.9h-56.9c-4.2,0-7.6-1.3-10.3-4c-2.6-2.6-4-5.8-4-9.6c0-4,1.5-7.6,4.5-11
			l37.9-40.6h-29.1c-9.6,0-14.4-4-14.4-11.9c0-7.8,4.8-11.7,14.4-11.7H246c4.2,0,7.6,1.3,10.3,4c2.6,2.6,4,5.8,4,9.6
			c0,3.9-1.5,7.5-4.5,10.8l-38.1,40.8h31.4C258.8,124.8,263.6,128.7,263.6,136.5z"/>
		<path class="st1" d="M370.8,136.5c0,7.9-4.8,11.9-14.4,11.9h-56.9c-4.2,0-7.6-1.3-10.3-4c-2.6-2.6-4-5.8-4-9.6c0-4,1.5-7.6,4.5-11
			l37.9-40.6h-29.1c-9.6,0-14.4-4-14.4-11.9c0-7.8,4.8-11.7,14.4-11.7h54.7c4.2,0,7.6,1.3,10.3,4c2.6,2.6,4,5.8,4,9.6
			c0,3.9-1.5,7.5-4.5,10.8l-38,40.8h31.4C366,124.8,370.8,128.7,370.8,136.5z"/>
		<path class="st0" d="M460.9,64.5c5.9,3.7,10.5,9,13.7,15.7s4.9,14.6,4.9,23.7s-1.6,17.2-4.9,24.1c-3.2,6.9-7.8,12.3-13.7,16.1
			c-5.9,3.8-12.7,5.7-20.4,5.7c-7.3,0-13.6-1.6-18.9-4.9s-9.2-7.9-11.8-14.1V145c0,2.8-1.3,4.2-3.8,4.2c-1.2,0-2.1-0.4-2.8-1.1
			c-0.7-0.7-1-1.7-1-3.1V24.4c0-2.8,1.3-4.2,3.8-4.2c1.2,0,2.1,0.4,2.8,1.1c0.7,0.7,1,1.7,1,3.1v53.3c2.6-6,6.6-10.7,11.8-13.9
			s11.5-4.9,18.9-4.9C448.2,58.9,455,60.7,460.9,64.5z M463.1,132.2c5.4-6.7,8.1-16.2,8.1-28.3c0-11.9-2.7-21.2-8.1-27.7
			c-5.4-6.6-13-9.8-22.8-9.8s-17.3,3.3-22.6,9.9c-5.3,6.6-7.9,16-7.9,28c0,12.2,2.6,21.5,7.9,28.2c5.3,6.6,12.9,9.9,22.8,9.9
			C450.2,142.3,457.7,138.9,463.1,132.2z"/>
		<path class="st0" d="M530.4,144.1c-5.9-3.7-10.5-9-13.7-15.9s-4.9-14.9-4.9-24c0-9,1.6-17,4.9-23.8s7.8-12.2,13.7-15.9
			c5.9-3.7,12.7-5.6,20.4-5.6s14.5,1.9,20.4,5.6s10.5,9,13.7,15.9s4.9,14.8,4.9,23.8c0,9.1-1.6,17.2-4.9,24s-7.8,12.2-13.7,15.9
			s-12.7,5.6-20.4,5.6C543.1,149.7,536.3,147.8,530.4,144.1z M573.7,132.4c5.4-6.6,8-16,8-28.3c0-11.9-2.7-21.2-8.2-27.9
			c-5.5-6.7-13-10-22.7-10c-9.6,0-17.2,3.3-22.7,10s-8.2,16-8.2,27.9c0,12.3,2.7,21.7,8,28.3c5.4,6.6,12.9,9.8,22.7,9.8
			C560.7,142.3,568.3,139,573.7,132.4z"/>
		<path class="st0" d="M695.8,145.2c0,1.1-0.4,2-1.1,2.7c-0.7,0.7-1.6,1.1-2.5,1.1c-1.1,0-2.1-0.5-3.1-1.6l-32.5-38.1l-32.3,38.1
			c-1.1,1.1-2.2,1.6-3.2,1.6s-1.8-0.4-2.5-1.1c-0.7-0.7-1.1-1.6-1.1-2.7c0-1.1,0.4-2.1,1.3-3.1l33-38.5l-32-37.6
			c-0.8-1-1.3-2-1.3-3.1s0.4-2,1.1-2.7s1.6-1.1,2.5-1.1c1.1,0,2.1,0.5,3.1,1.6L656.7,98l31.4-37.2c1-1.1,2-1.6,3.1-1.6
			c1,0,1.8,0.4,2.6,1.1c0.8,0.7,1.2,1.6,1.2,2.7c0,1.1-0.4,2.1-1.3,3.1l-32.1,37.6l33,38.5C695.4,143.1,695.8,144.1,695.8,145.2z"/>
	</g>
</g>
</svg>
