<?xml version="1.0" encoding="UTF-8"?>
<svg id="ICONS" xmlns="http://www.w3.org/2000/svg" viewBox="0 0 24 24">
  <defs>
    <style>
      .cls-1 {
        stroke-width: 0px;
      }
    </style>
  </defs>
  <path id="icon-f-close" class="cls-1" d="m21.35,19.37l-7.37-7.37,7.37-7.37c.54-.54.54-1.43,0-1.98-.26-.26-.61-.41-.99-.41s-.72.15-.99.41l-7.37,7.37L4.63,2.65c-.26-.26-.61-.41-.99-.41s-.72.15-.99.41c-.54.54-.54,1.43,0,1.98l7.37,7.37-7.37,7.37c-.26.26-.41.61-.41.99s.15.72.41.99.61.41.99.41.72-.15.99-.41l7.37-7.37,7.37,7.37c.26.26.61.41.99.41s.72-.15.99-.41c.26-.26.41-.61.41-.99s-.15-.72-.41-.99Z"/>
</svg>