<?xml version="1.0" encoding="UTF-8"?>
<svg id="Layer_2" data-name="Layer 2" xmlns="http://www.w3.org/2000/svg" viewBox="0 0 96.17 87.35">
  <defs>
    <style>
      .cls-1 {
        stroke-width: 0px;
      }
    </style>
  </defs>
  <g id="Layer_1-2" data-name="Layer 1">
    <g>
      <path class="cls-1" d="m45.13,47.96h0c-.17-.21-.34-.42-.53-.65-1.01-1.25-2.09-2.88-3.23-4.6-.21-.32-.43-.64-.64-.97,0,0-4.52-8-9.33-8.66-.12-.02-.19.12-.12.21.54.65,2.03,2.53,3.35,5l.09.18c.15.28.3.58.44.88.5,1.04.95,2.17,1.27,3.33.03.1-.07.2-.18.15-3.03-1.23-8.8-3.9-13.46-7.93-1.6-1.38-2.84-2.9-3.8-4.65-.47-.88-.67-1.9-.73-2.85,0-.1,0-.2-.01-.31-.4-7.54,7.27-14.35,9.13-15.88.11-.09.02-.26-.11-.23-1.3.32-3.04,1.25-4.75,2.3-2.55,1.58-5,3.44-5.73,4.01-.09.07-.21,0-.21-.11.09-2.31.39-4.64.87-6.94.7-3.31,1.82-6.69,3.33-10.06.06-.13-.1-.24-.2-.15-1.17,1.03-4.42,4.23-6.76,9.64-1.04,2.41-1.91,5.27-2.33,8.57-.02.18-.04.35-.06.53-.17,1.57-.53,6.37.59,10.71.18.69.4,1.37.66,2.02.89,2.36,2.45,5.29,5.11,7.33,1.78,1.5,5.53,4.02,13.15,7.14.61.28,1.24.57,1.9.86,3.48,1.57,4.24,2.31,5.28,3.18.21.16.43.32.66.5.26.21.51.4.76.57,1.35.94,2.57,1.39,3.7,1.39.83,0,1.62-.26,2.34-.76.35-.25.83-.65.91-1.24.1-.75-.44-1.42-1.35-2.51Z"/>
      <path class="cls-1" d="m84.75,18.77c-.02-.18-.04-.35-.06-.53-.42-3.3-1.29-6.16-2.33-8.57-2.34-5.41-5.59-8.61-6.76-9.64-.1-.09-.26.02-.2.15,1.51,3.37,2.63,6.75,3.33,10.06.48,2.3.78,4.63.87,6.94,0,.11-.12.18-.21.11-.73-.57-3.19-2.43-5.73-4.01-1.7-1.06-3.45-1.98-4.75-2.3-.13-.03-.22.14-.11.23,1.87,1.54,9.54,8.34,9.13,15.88,0,.11,0,.21-.01.31-.06.95-.26,1.97-.73,2.85-.96,1.74-2.2,3.26-3.8,4.65-4.66,4.03-10.44,6.7-13.46,7.93-.1.04-.2-.05-.18-.15.32-1.16.77-2.28,1.27-3.33.14-.3.29-.59.44-.88l.09-.18c1.32-2.46,2.81-4.35,3.35-5,.07-.09,0-.23-.12-.21-4.81.66-9.33,8.66-9.33,8.66-.22.32-.43.65-.64.97-1.14,1.72-2.22,3.35-3.23,4.6-.19.23-.36.44-.53.64h0c-.91,1.1-1.45,1.76-1.35,2.52.08.59.56.99.91,1.24.72.51,1.51.76,2.34.76,1.14,0,2.35-.46,3.7-1.39.25-.18.51-.36.76-.57.23-.18.44-.34.66-.5,1.04-.87,1.81-1.61,5.28-3.18.66-.3,1.29-.59,1.9-.86,7.62-3.12,11.37-5.64,13.15-7.14,2.65-2.04,4.21-4.96,5.11-7.33.26-.65.48-1.33.66-2.02,1.12-4.33.76-9.14.59-10.71Z"/>
      <path class="cls-1" d="m11.57,62.73c-.04-.54-.31-.63-.85-.63-.74,0-2.16.13-3.63.13h-2.52c-1.41,0-2.83-.13-3.61-.13-.65,0-.81.13-.87.63-.04.4-.04.82-.04,1.18-.02.53-.05,1.27-.05,1.58,0,.45.31.65.82.65.33,0,.45-.09.74-.78.18-.42.49-1.02,1.1-1.36.38-.22.78-.29,1.16-.29.47,0,.51.24.51.51v7.29c0,.98-.05,1.63-.24,2.01-.36.78-1.07.65-1.07,1.18,0,.31.31.47.71.47h4.19c.4,0,.71-.16.71-.49,0-.55-.76-.38-1.1-1.23-.16-.38-.2-1.03-.2-1.94v-7.29c0-.27.04-.51.51-.51.42,0,.8.09,1.16.29.58.31.94.94,1.12,1.36.29.69.42.8.74.8h0c.47,0,.8-.2.8-.61s-.04-.96-.05-1.49c-.02-.49,0-.85-.04-1.32Z"/>
      <path class="cls-1" d="m26.7,74.7h.01c0-.27-.2-.38-.45-.53-.34-.2-.56-.47-.67-.78-.09-.24-.16-.63-.16-1.89v-6.93c0-.63.04-1.03.51-1.32.32-.2.65-.26.65-.62,0-.22-.2-.42-.6-.42h-4.14c-.42,0-.62.2-.62.42,0,.36.32.42.65.62.53.31.53.8.53,1.61v2.52c0,.09-.05.15-.18.15h-4.5c-.18,0-.29-.09-.29-.24v-2.43c0-.81,0-1.31.51-1.61.32-.2.65-.26.65-.62,0-.22-.18-.42-.6-.42h-4.14c-.42,0-.62.2-.62.42,0,.36.32.42.65.62.53.31.53.8.53,1.61v6.64c0,1.25-.09,1.63-.18,1.89-.11.31-.31.58-.67.78-.26.14-.44.25-.44.53,0,.31.29.47.69.47h4.21c.4,0,.69-.16.69-.47,0-.27-.2-.38-.45-.53-.34-.2-.54-.47-.65-.78-.09-.25-.18-.63-.18-1.89v-2.3c0-.11.05-.16.16-.16h4.51c.18,0,.29.11.29.25v2.21c0,1.25-.09,1.63-.18,1.89-.11.31-.33.58-.67.78-.25.14-.45.25-.45.53,0,.31.31.47.71.47h4.19c.4,0,.71-.16.71-.47Z"/>
      <path class="cls-1" d="m38.54,75.32c1.39,0,1.07-1.58,1.43-2.83.05-.22.13-.53.13-.73h.01c0-.43-.4-.65-.78-.65-.34,0-.58.24-.87.69-.98,1.47-2.09,1.89-3.74,1.89-.36,0-.67-.02-.84-.11-.34-.18-.38-.67-.38-1.5v-2.57c0-.18.09-.29.27-.29.81,0,1.3,0,1.85.02.45.02.87.05,1.21.05.92,0,1-.22,1.03-.85.02-.16.05-.34.05-.51,0-.36-.27-.44-.6-.44-.38,0-.87.07-1.54.11-.73.04-1.2.05-1.74.05s-.55-.2-.55-.49v-2.97c0-.34.05-.51.47-.51h.38c1.14,0,1.92.02,2.54.33.65.34.94.94,1.12,1.36.29.69.45.8.74.8.51,0,.8-.22.8-.67,0-.2-.02-.78-.04-1.41-.02-.53-.02-1.12-.04-1.34-.05-.49-.26-.63-.78-.63-.67,0-2.05.13-3.95.13h-4.82c-.42,0-.62.2-.62.42,0,.36.32.42.65.62.49.31.53.73.53,1.43v6.82c0,1-.07,1.63-.24,2.01-.33.8-1.07.62-1.07,1.18,0,.31.31.47.71.47h5.24c1.92,0,2.77.15,3.41.15Z"/>
      <path class="cls-1" d="m47.1,73.92c.58.9,2.43,1.45,4.26,1.45,3.1,0,5.39-1.76,5.39-4.22,0-4.64-6.74-3.41-6.74-6.18,0-1.01.87-1.5,1.72-1.5,1.1,0,1.81.74,2.34,1.36.58.69.81,1.21,1.38,1.21.67,0,.71-.69.71-1.25h0c0-.61-.11-1.41-.45-1.76-.69-.65-2.12-1.02-3.5-1.02-2.96,0-4.99,1.79-4.99,4.01,0,4.22,6.73,3.21,6.73,6.05,0,.58-.29,1.02-.62,1.31-.4.34-1,.47-1.52.47-1.29,0-2.1-.74-2.72-1.39-.94-1-1.07-1.67-1.69-1.67-.34,0-.69.27-.69.84,0,.22.04.45.04.69,0,.53.05,1.12.36,1.61Z"/>
      <path class="cls-1" d="m59.57,65.36c.18-.42.49-1.02,1.1-1.36.38-.22.78-.29,1.16-.29.47,0,.51.24.51.51v7.29c0,.98-.05,1.63-.24,2.01-.36.78-1.07.65-1.07,1.18,0,.31.31.47.71.47h4.19c.4,0,.71-.16.71-.49,0-.55-.76-.38-1.1-1.23-.16-.38-.2-1.03-.2-1.94v-7.29c0-.27.04-.51.51-.51.42,0,.8.09,1.16.29.58.31.94.94,1.12,1.36.29.69.42.8.74.8h0c.47,0,.8-.2.8-.61s-.04-.96-.05-1.49c-.02-.49,0-.85-.04-1.32-.04-.54-.31-.63-.85-.63-.74,0-2.16.13-3.63.13h-2.52c-1.41,0-2.83-.13-3.61-.13-.65,0-.81.13-.87.63-.04.4-.04.82-.04,1.18-.02.53-.05,1.27-.05,1.58,0,.45.31.65.81.65.33,0,.45-.09.74-.78Z"/>
      <path class="cls-1" d="m82.11,73.97h0c-.34-.27-.49-.59-.82-1.39-.4-.98-3.64-9.5-3.92-10.23-.07-.18-.2-.27-.44-.27h-1.16c-.22,0-.34.09-.44.29l-4.01,9.01c-.36.81-.67,1.36-.96,1.83-.44.69-.74.89-1.03,1.07-.16.11-.27.22-.27.42,0,.34.33.47.69.47h3.03c.34,0,.71-.13.71-.47,0-.29-.29-.38-.47-.51-.18-.13-.49-.42-.49-.94,0-.34.09-.87.42-1.69.07-.2.18-.27.34-.27h3.93c.33,0,.42.13.51.33,0,0,.44,1.12.56,1.47.07.2.11.34.11.49,0,.76-.89.6-.89,1.14,0,.29.27.45.63.45h4.1c.51,0,.67-.24.67-.49,0-.38-.49-.43-.81-.71Zm-5.26-4.16l-2.9-.02c-.11,0-.16-.05-.16-.13,0-.05.02-.09.05-.18h0s1.54-3.72,1.54-3.72c.02-.04.04-.05.07-.05s.05.02.07.05l1.41,3.74c.04.09.05.14.05.18,0,.07-.05.13-.15.13Z"/>
      <path class="cls-1" d="m96.17,69.24c0-.22-.2-.42-.6-.42h-4.61c-.45,0-.65.18-.65.45,0,.36.42.43.78.58.81.31.91.83.91,1.85v1.29c0,.29-.05.56-.45.67-.13.04-.44.11-.8.11-2.68,0-3.59-3.37-3.59-5.46,0-2.37.93-4.75,3.39-4.75,1,0,1.62.43,2.09,1,.58.69.8,1.5,1.54,1.5.8,0,.82-.85.82-1.47v-.15c0-.73-.14-1.34-.71-1.72-.78-.53-2.25-.73-3.34-.73-4.15,0-7.07,2.97-7.07,6.84s2.55,6.53,6.63,6.53c1.54,0,2.96-.53,4.06-1.34.33-.26.44-.45.44-.83v-1.72c0-.81,0-1.27.51-1.61.32-.22.65-.26.65-.62h0Z"/>
      <path class="cls-1" d="m29.23,85.34h0c-.58,0-.5,1.24-1.6,1.24-1.28,0-1.65-1.4-1.65-2.4s.42-2.19,1.54-2.19c.44,0,.71.2.9.41.29.33.4.74.72.74.29,0,.38-.2.38-.57v-.34c0-.23-.04-.41-.33-.61-.28-.19-.81-.33-1.43-.33-1.83,0-3.27,1.23-3.27,3.05s1.35,3,3.16,3c.61,0,1.36-.17,1.66-.45.22-.2.29-.51.29-1.09,0-.34-.14-.46-.38-.46Z"/>
      <path class="cls-1" d="m33.79,81.3c-1.74,0-3,1.35-3,3.02,0,1.79,1.16,3.03,3,3.03,1.73,0,3-1.28,3-3.03s-1.15-3.02-3-3.02Zm.09,5.32c-1.23,0-1.62-1.6-1.62-2.55h0c0-.94.4-2.07,1.43-2.07,1.22,0,1.62,1.61,1.62,2.58s-.41,2.04-1.43,2.04Z"/>
      <path class="cls-1" d="m44.85,86.81c-.15-.09-.25-.21-.3-.35-.04-.11-.08-.29-.08-.85v-3.13c0-.3.02-.48.23-.6.15-.09.3-.11.3-.28,0-.1-.08-.19-.27-.19h-1.78c-.13,0-.23.06-.28.19l-1.13,2.75s-.02.03-.04.03-.03-.01-.04-.03l-1.17-2.76c-.06-.13-.11-.18-.35-.18h-1.62c-.21,0-.34.07-.34.22,0,.17.2.21.34.28.1.05.14.09.16.15.03.07.03.21.03.26,0,.18,0,2.3-.03,3.05-.02.74-.08,1.09-.24,1.31-.13.19-.34.21-.34.39,0,.13.11.2.35.2h1.47c.22,0,.34-.08.34-.23,0-.17-.25-.23-.39-.31-.16-.09-.41-.22-.45-.88-.03-.35-.03-3.24-.03-3.29,0-.03.01-.05.04-.05.01,0,.02,0,.03.03l1.48,3.6c.06.15.1.18.23.18h.37c.11,0,.15-.02.22-.18l1.45-3.56c.03-.06.04-.07.06-.07s.03,0,.03.03v3.07c0,.57-.04.74-.08.85-.05.14-.14.26-.3.35-.11.07-.2.11-.2.24,0,.14.13.21.31.21h1.9c.18,0,.31-.07.31-.21h0c0-.12-.09-.17-.21-.23Z"/>
      <path class="cls-1" d="m50.98,81.93c-.55-.53-1.35-.53-2.42-.53h-1.8c-.19,0-.27.09-.27.19,0,.16.15.19.3.28.21.12.23.31.23.6v3.13c0,.57-.04.74-.08.85-.05.14-.14.26-.3.35-.12.07-.21.11-.21.24,0,.14.14.21.31.21h1.9c.18,0,.31-.07.31-.21,0-.12-.09-.18-.2-.24-.16-.09-.26-.21-.3-.35-.04-.11-.08-.29-.08-.85v-.58c0-.06.01-.11.1-.11h.57c1.21,0,1.96-.37,2.27-1.12.08-.2.13-.44.13-.67,0-.42-.12-.86-.46-1.17Zm-.95,1.2c0,.23-.07.46-.17.61-.2.3-.54.47-1.12.47h-.28c-.07,0-.1-.03-.1-.1v-1.92c0-.08.03-.12.12-.12h.26c.47,0,.79.11,1.03.37.18.2.26.45.26.7h0Z"/>
      <path class="cls-1" d="m57.3,86.71h0c-.16-.12-.22-.27-.37-.63-.18-.44-1.65-4.3-1.77-4.63-.03-.08-.09-.12-.2-.12h-.53c-.1,0-.16.04-.2.13l-1.81,4.08c-.16.37-.3.62-.43.83-.2.31-.34.4-.47.48-.07.05-.12.1-.12.19,0,.16.15.21.31.21h1.37c.16,0,.32-.06.32-.21,0-.13-.13-.17-.21-.23-.08-.06-.22-.19-.22-.43,0-.16.04-.39.19-.76.03-.09.08-.12.15-.12h1.78c.15,0,.19.06.23.15,0,0,.2.51.26.67.03.09.05.16.05.22,0,.34-.4.27-.4.52,0,.13.12.2.29.2h1.85c.23,0,.3-.11.3-.22,0-.17-.22-.2-.37-.32Zm-2.38-1.88h-1.31s-.07-.03-.07-.07c0-.03,0-.04.03-.08l.7-1.68s.02-.03.03-.03.02,0,.03.03l.64,1.69s.03.07.03.08c0,.03-.03.06-.07.06Z"/>
      <path class="cls-1" d="m64.44,81.4h-1.56c-.22,0-.34.08-.34.22,0,.16.22.22.38.3.18.09.34.21.38.9.03.55.03,1.64.03,2.54,0,.03-.01.05-.04.05s-.04-.02-.06-.05l-2.59-3.76c-.1-.14-.22-.21-.43-.21h-1.34c-.18,0-.34.07-.34.23,0,.19.2.21.44.34.13.07.25.17.28.2.04.04.05.07.05.14,0,.18-.01,3.29-.03,3.54-.06.71-.26.82-.47.93-.11.06-.32.11-.32.28,0,.11.09.21.34.21h1.71c.22,0,.34-.09.34-.23,0-.19-.26-.24-.4-.31-.16-.08-.42-.22-.46-.88-.02-.36-.02-1.92-.02-2.58,0-.03.01-.05.03-.05.03,0,.04.02.06.05l2.71,3.91c.07.1.15.15.3.15h.77c.09,0,.15-.06.15-.13,0-.29,0-3.82.04-4.37.05-.7.2-.82.41-.93.11-.06.32-.11.32-.29h0c0-.11-.09-.2-.34-.2Z"/>
      <path class="cls-1" d="m71.36,81.4h-1.41c-.16,0-.32.06-.32.21,0,.24.42.22.42.58,0,.13-.06.32-.25.62-.23.38-.63,1.01-.83,1.33-.02.02-.03.05-.06.05-.02,0-.03,0-.05-.04l-1.01-1.83c-.06-.1-.09-.19-.09-.26,0-.26.38-.22.38-.46,0-.13-.11-.21-.28-.21h-1.9c-.23,0-.3.11-.3.22,0,.09.06.14.15.19.08.04.19.08.3.19.11.11.2.27.37.57.07.12,1.04,1.87,1.42,2.56.03.07.04.08.04.15v.33c0,.57-.04.74-.08.85-.05.14-.14.26-.3.35-.11.06-.2.11-.2.24,0,.14.13.21.31.21h1.89c.18,0,.32-.07.32-.21,0-.12-.1-.18-.21-.25-.15-.09-.25-.2-.3-.34-.04-.11-.07-.29-.07-.85v-.63s0-.06.03-.09c.38-.61.99-1.58,1.17-1.85.22-.32.46-.67.6-.81.2-.22.32-.3.48-.42.07-.06.12-.11.12-.2,0-.14-.11-.21-.31-.21Z"/>
      <polygon class="cls-1" points="71.67 81.6 71.67 81.6 71.67 81.6 71.67 81.6"/>
    </g>
  </g>
</svg>