<?xml version="1.0" encoding="UTF-8"?>
<svg xmlns="http://www.w3.org/2000/svg" xmlns:xlink="http://www.w3.org/1999/xlink" version="1.1" viewBox="0 0 2000 2000">
  <defs>
    <style>
      .cls-1 {
        fill: none;
      }

      .cls-2 {
        fill: #4e4234;
      }

      .cls-3 {
        fill: #3b482e;
      }

      .cls-4 {
        fill: #c8c286;
      }

      .cls-5 {
        fill: #6f7243;
      }

      .cls-6 {
        clip-path: url(#clippath);
      }
    </style>
    <clipPath id="clippath">
      <rect class="cls-1" width="2000" height="2000"/>
    </clipPath>
  </defs>
  <!-- Generator: Adobe Illustrator 28.7.1, SVG Export Plug-In . SVG Version: 1.2.0 Build 142)  -->
  <g>
    <g id="Layer_1">
      <g class="cls-6">
        <g>
          <rect class="cls-1" width="2000" height="2000"/>
          <path class="cls-5" d="M1339.1,27.2c-14.2,11.7-34.4,15.1-46.8,28.7-4.9,5.4-8.1,11.9-10.3,18.9,10.6,5.7,21.9,10,33.8,12.1,6.6,1.1,13.3,1.5,19.9,1,2.8-7.4,5.7-14.7,10.6-20.1,8.4-9.4,22.7-12,35.8-6.7,3.6,1.5,7.1,3.6,10.4,6.1,9.1.8,18.6,4.5,27.2,6.3,13.3,2.8,20.9,1.5,32.5-3.2,27.5-11.2,54.6-18.1,76.6-37.5,3.6-3.2,7.9-6.8,13-5.7,2.8.6,5.1,2.4,7.1,4.4,12.5,12.2,18.3,29.4,15.2,45.1-1.8,9.2-6.5,18.3-3.6,27.5,4,12.8,20.1,19.1,32.3,27,15.8,10.3,26.6,26.2,30.2,43,25.1-11.8,53.2-22.8,79.9-18.2-6.9-3.9-14-7.7-20.8-11.8-17.4-10.5-35.1-25.2-41.8-44.6-2.3-6.8-3.2-13.7-4.8-20.5-7.3-29.5-29.6-55.1-52.2-77.1-.7-.6-1.3-1.3-2-1.9h-222.6c-4.9,10.4-10.7,20-19.5,27.2Z"/>
          <path class="cls-5" d="M1495,228.1c-3.7-.7-7.4-1.5-10.5-3.4-6.1-3.6-8.9-10.2-11.9-16.1-7-13.4-17.4-25.2-27.7-36.8-5.9-6.7-12.2-13.6-20.8-17-2.4-.9-4.7-1.5-7.1-1.9,4.2,24.2,12.9,47.9,29.4,66.4,13.9,15.6,31.8,25.6,48.1,37.7,10.2,7.6,20.3,16.7,27.7,27.4,14.6-15.2,23.8-35.9,35.1-54.9-20.4,2.9-41.5,2.4-62.1-1.4Z"/>
          <path class="cls-5" d="M1948.5,660.1c-.7,5.2-2.2,10.3-4.4,15-7.7,15.9-22.4,27.8-37.9,37-14.4,8.5-30.7,15.3-47.2,13.8-7-.6-13.7-2.7-20.8-2.8-14.4-.2-28.2,8.2-37.4,19.2-9.2,11-14.6,24.5-19.1,37.9-7.6,22.6-13.2,45.7-16.9,69-.7,4.3-1.3,8.8-3.7,12.6-2.3,3.5-5.8,6.1-9.4,8.4-20.9,13.4-45.3,21.6-69.9,23.2-10.2.7-20.5.3-30.4,2.8-24.2,5.9-45.8,28.1-69.7,23-11-2.4-19.7-10.3-30.1-14.3-26.2-10.1-55.7,5.8-80.6,20.5-24.8,14.6-50,28.6-75.6,41.9,11.6,6.1,22.3,14.9,33,22.4,15,10.5,32,19.2,50.4,22.4,18.4,3.2,38.2.4,52-10,3.3-2.5,6.3-5.5,10.2-7.3,12.9-6.2,28.3,1.3,41.6,4.1,13.3,2.8,20.9,1.5,32.5-3.2,27.5-11.2,54.6-18.1,76.6-37.5,3.6-3.2,7.9-6.8,13-5.7,2.8.6,5.1,2.4,7.1,4.4,12.5,12.2,18.3,29.4,15.2,45.1-1.8,9.2-6.5,18.3-3.6,27.5,4,12.8,20.1,19.1,32.3,27,20.9,13.6,33.1,37.1,31.4,59.3,60.3-23.9,125.7-34.9,190.5-31.7,7.5.4,15,.9,22.6,1.6v-76.5c-3.6.5-7.2,1-10.8,1.3-28.3,2.8-60.7-2.2-77.7-25-6.9-9.3-10.6-20.6-16.7-30.4-15.9-25.6-45.7-38-72.6-51.6-5.8-2.9-11.6-6.1-15.6-11.1-8.2-10.5-6.1-25.4-3.5-38.5,2-9.9,5.1-21,14.1-25.3,5.6-2.7,12.2-1.9,18.3-1.1,24.6,3.2,53.5,9.4,63.2,32.3,5.7,13.4,3.9,31.2,15.4,40.1,7.9,6.1,19.3,5.2,28.6,1.5,9.3-3.8,17.3-10,26.4-14.2,9.6-4.5,20.3-6.3,30.9-5.8v-179.3s0,0,0,0c-17.1-13.8-34.3-27.6-51.4-41.5Z"/>
          <path class="cls-5" d="M900.8,23.7c-.6-2.5-1-5.1-1.4-7.7-.4-3-.7-6.1.4-9.1,1-2.6,2.9-4.9,5.3-7h-26.6c6.5,8.6,14.3,16.3,22.4,23.7Z"/>
          <path class="cls-5" d="M1976.9,614.7c4.6,8.1,14,11.7,23.1,14.4v-55.2c-16.7,4.6-33.9,22-23.1,40.9Z"/>
          <path class="cls-5" d="M1943,270.2c-2.7-4.6-3.8-9.9-3.5-15.2-1.9.5-3.9,1-5.9,1.4-14.9,3.2-30.6,3.6-45.7,6.3-6.9,1.2-13.7,3-18.9,7.3-13.2,11-11.5,34.5-21.8,48.4-7.5,10.2-21.5,14.1-35,10-13.6-4.1-26.2-16.2-31.7-30.3-3.1-8-4-16.4-5.1-24.6-2.8-20.9-8-43-17.7-62.7,4,21.9-3.1,45.4-18.3,61.7-14.5,15.5-34.7,24-53.2,34.5-17.5,10-65.3,50.4-32,69,13,7.2,30.9,6.8,45.1,9.9,11.3,2.5,48.1,13,46.2,29.3-.5,4.6-5.3,7.3-9.6,9.2-16.3,7.1-33.2,12.8-50.4,17-9.7,2.4-19.8,4.3-28.4,9.4-11.5,6.8-18.5,17.6-24.2,29.8.6,1.2,1.2,2.4,1.7,3.6,2.4,5.5,4.5,11.4,4.1,16.9-.8,9.4-8.5,14.8-15.7,19-3.2,1.9-6.6,3.9-10.2,5.2-.5.7-.9,1.5-1.4,2.2-13.6,20.7-36.9,34.6-47.1,57.3-5.7,12.8-6.7,27.1-9.8,40.8-3.1,13.7-9.2,27.8-21.5,34.6-10.4,5.8-22.9,5.1-34.6,7.3-39.8,7.5-65.3,47.3-77,86-2.5,8.3-5.8,18-14.1,20.6-10,3.1-18.9-6.2-27.7-11.8-13.1-8.4-30.9-9.1-44.6-1.7-5.1,2.7-9.8,6.5-15.3,8.1.7,2.4,1.5,4.7,2.4,7.1,6.1,16.4,15.5,31.6,20.6,48.4,5.1,16.8,5.1,36.6-6.1,50.2-9.6,11.6-25.4,16.3-36.4,26.6-12.4,11.5-16.7,27.5-19.5,44.5,17.1-8.1,34.2-16.2,51.3-24.3,10.4-5,21.1-10,29.7-17.6,15.8-13.8,23.3-33.9,32.1-52.5,28.1-59.1,76-109.7,134.4-142.2,11.7-6.5,23.9-12.3,37-14.8,14.7-2.8,29.8-1.1,44.6-2.9,14.8-1.8,30.8-8.1,37.5-21.2,6-11.6,3.3-25.6,8.3-37.7,7.8-18.7,45.1-39.4,65.4-37.5,19,1.7,43.5,23.4,59.9,32,5.3,2.8,10.8,5.7,16.9,6.2,9.2.8,18.1-3.9,26.7-7.6,23.8-10.3,50.4-14.1,75.7-11-8.2-12.8-13.2-28-11-43,2.8-18.5,16.1-34,31.6-44.6,22.7-15.5,51.1-22,78.4-19v-209.1c-14.2-4.9-29-8.3-42.3-15.6-5.8-3.2-11.3-7.2-14.7-12.8Z"/>
          <path class="cls-5" d="M1834.6,50.1c-.2,31.4,12.2,66.9,37.3,90.1,26.5,24.4,62.3,31.6,88.9,55.8,6.1,5.5,11.8,12.6,13.9,20.1,8.2-3.1,16.7-5.3,25.2-7.4V0h-169.7c.8,1.8,1.5,3.6,2.1,5.4,4.8,15,2.3,29.9,2.2,44.7Z"/>
          <path class="cls-5" d="M668.4,2000h107.4c-1.4-9-2.8-18-4.1-27-36-.4-72,9.2-103.3,27Z"/>
          <path class="cls-5" d="M13.8,1935.8c-4.6,1.6-9.2,3.2-13.8,4.6v59.5h24.4c0-.3-.2-.6-.3-.8-6.6-20.4-10-41.9-10.3-63.3Z"/>
          <path class="cls-5" d="M229.6,1989.9c-17.7.6-35.2,4.8-52.5,10.1h110.7c-18.7-6.8-38-10.8-58.2-10.1Z"/>
          <path class="cls-5" d="M1980.1,1946c-61.6,15.4-130.6,15.8-184.3-18-12.2-7.7-23.6-17.4-29.8-30.4-4-8.5-5.6-17.9-6.6-27.2-4.6-43.5,4.1-89.8,7.4-133.5,3.7-49.7,35-85.7,69.6-118.5,4.6-4.3,9.3-8.7,15.1-11,5.8-2.3,12.3-2.3,18.5-2.2,22,.2,44,.4,66,.6,13.2.1,26.5.2,39.5-2,8.4-1.4,16.6-3.7,24.6-6.7v-115.3c-31.7,46-71.5,89-132.9,59.2-57.8-28.1-131.5-101.8-197-40.2-24.8,23.3-33.4,66-66.3,74.7-25.8,6.8-50.6-12.2-70.4-30.1-19.1-17.3-39.9-39.8-34.6-65,5.5-26.3,36.8-38.6,63.7-38.1,26.9.5,53.6,9.1,80.2,5.2,49.4-7.4,81.6-54.2,107.7-96.8,3.9-6.3,7.8-12.8,8.8-20.1,1.2-8.6-1.7-17.3-5.4-25.1-11.1-23.3-29.2-42.4-42-64.8s-19.8-51.1-7-73.5c2.5-4.4,5.7-8.4,9.3-11.9-18.5,2-37.6,1.3-56.2-2.2-3.7-.7-7.4-1.5-10.5-3.4-6.1-3.6-8.9-10.2-11.9-16.1-7-13.4-17.4-25.2-27.7-36.8-5.9-6.7-12.2-13.6-20.8-17-18.4-7.2-37.4,4-55.5,10-26.5,8.7-57.4,5.6-84.4-4.7-27-10.3-50.6-27.2-71.4-45.9-11-9.9-21.7-21.1-24.9-34.5-1.2-5-1.3-10.1-.7-15.1-10.4,4.4-21.1,7.8-32.2,8.3-15.7.8-31.3-4.5-43-14.1-.7,3-1.6,6-2.6,8.9-2.1,6.2-5,12.1-8.4,17.7,5.6-.2,11.1.7,16.3,3,8.5,3.7,15.2,10.7,20.6,18.3,19.1,26.5,25.1,60.3,25.2,92.9.1,32.6-5,64.9-5.8,97.5-.4,14.8.3,30.1,6,43.8,14.7,35.1,57.5,49.4,78.7,81,3.2,4.8,5.8,9.9,7.9,15.3,10.2-8.4,19.1-18.4,25.7-30,17.9-31.2,17-67.7,34.7-99.1,5.1-9.1,12.8-18.2,22.2-20.2,4.6-1,9.1,0,13.1,1.5,13.9,5.5,23.3,18,29.7,31.8,6.4,13.8,10.3,29.1,16.2,43.1,2.7,6.4,6,12.7,11.3,16.8,13.6,10.4,36.1,3.6,52.1,10.5,11.6,5.1,18.5,17.8,17.5,31.9-1,14.1-10,29.1-22.5,37.6-7.2,4.8-15.1,7.5-22.8,10.4-32.3,12-66.4,30.9-84.7,62.4-10.5,18.1-14.4,38.2-20.8,57.5-6.4,19.3-16.8,39.8-34.3,50.6-6.1,3.8-12.7,6.1-19,9.3-27.2,13.6-47.2,41.1-63.7,68-11.9,19.4-23.1,39.7-37.3,57.5-2,8.8-4.6,17.5-7.9,25.9-4.4-1.4-8.8-2.7-13.2-3.8-3.5,2.8-7.3,5.2-11.3,6.2-9.2,2.2-16.7-3.5-23-9-1.1-1-2.2-1.9-3.3-3-7.1-.4-14.1-.4-21.2-.1-11.6,4-24.7,5.6-31.1,15.6-5.4,8.4-3.5,19.7,1,28.6,4.5,8.9,11.4,16.4,16.4,25.1,14.6,25.3,10,60.1-10.5,80.8-4.3,4.4-9.4,8.4-11.8,14-5.1,12.4,6.6,27,19.9,28.3,13.3,1.4,26-7.1,34.2-17.7,8.2-10.6,13.1-23.3,19.6-35.1,6.4-11.8,15.1-23.2,27.5-28.2,25.9-10.3,57,10.8,82.3-.8,11.4-5.3,19-16.1,26-26.5,14.3-21.2,28.5-42.4,42.8-63.5,9.4-14,19-28.1,31.7-39.2,12.7-11.1,29.1-18.9,45.9-17.9,18.7,1.2,35.3,13.1,47.1,27.6,24.7,30.3,32.4,73.6,19.6,110.5-.8,2.4-1.8,4.9-3.6,6.8-3.1,3.4-7.9,4.4-12.5,4.5-23.7.5-36.8-18.5-43.3-38.5-5.5-16.6-24.8-33.5-43.1-20.8-8.4,5.8-11,16.9-12.9,27-3.9,20.7-7.8,41.9-3.6,62.5,3.1,15.3,10.6,29.3,14.7,44.3,3.9,14.4,4.5,29.6,1.8,44.2-2.2,12.3-8.4,25.8-20.4,29.2-12.9,3.7-25.8-5.8-34.7-16-8.8-10.2-17.1-22.3-30-26.2-21.2-6.5-41.7,12.8-51.5,32.7-4.8,9.7-8.6,20.1-13.2,30h222.6c-22-21.3-45.6-42-60.6-68.7-2.9-5.2-5.6-10.9-5.7-16.4-.1-9.5,7.1-15.5,13.8-20.4,7-5.1,14.9-10.5,24.3-8.5,15.4,3.2,24.6,22.7,37.6,34,10.5,9.1,23.9,13.2,33.8,23.1,5.4,5.3,9.4,12.1,15.4,16.6,14.8,11.3,34.5,3.9,48.6,1.1,22.9-4.5,45-11.2,67.6-16.5,5.9-1.4,12-2.7,18.5-1.5,12.6,2.4,23.4,13.9,32.8,24.6,8.8,10.1,17.9,20.7,23.2,32.6h169.7v-59.5c-6.6,2-13.2,3.9-19.9,5.6Z"/>
          <path class="cls-5" d="M947.3,1961.6c5.7-6.4,11.5-13.2,12.6-20.8,2.2-16.2-17.1-27.6-29.9-39.9-18.8-18-25.5-42.6-22.7-66.3,2.8-23.7,14.4-46.5,29-67.8,7.7-11.2,17-22.6,31.3-28.8.9-.4,1.8-.7,2.7-1.1-12.2-10.5-23.5-22.1-33.7-33.9-31.8-36.7-62.5-78.6-103.2-102.6-33.5,8.4-65.7,25.3-95.4,43.4-47.9,29.2-95.1,63-150.2,73.7-10.5,2-21.7,3.1-31.6-.9-16.5-6.7-24.6-24.9-30.8-41.8-25.2,23.6-60.2,34.1-94.6,37.8-34.4,3.8-69.1,1.6-103.6,3.8-33.9,2.2-67.6,8.6-99.9,19.1-22,7.1-44.4,16.9-58.2,35.4-8.6,11.6-13.2,25.6-18.8,38.9-6.4,15.1-14.6,29.5-24.2,42.8,25.8-7.3,52-12.8,78.7-14,47.1-2.2,82.6,21.3,127.2,26.6,63.4,7.6,132.8-38.5,177.3,35.6,4.5,7.5,8.2,15.8,14.8,21.6,7,6.2,16.5,8.6,25.6,10.6,55.1,12,121,9.2,157.2-34.1,10.3-12.4,22.5-29.4,38-24.8,9.4,2.8,14.5,12.6,17.9,21.8,1.7,4.6,3.2,9.2,4.5,13.9.6-5.9,1.6-11.8,3.3-17.5,7.6-24.9,28.3-45.4,53.4-52.6,4-1.2,8.3-2,12.4-.8,9.7,2.8,12.5,14.9,13.7,25,2.9,25.2,5.9,50.5,8.8,75.7,1.7,14.2,3.4,28.6,9,41.8,2.9,6.7,6.6,12.8,10.9,18.5h26.6c2.8-2.4,6.1-4.6,9.2-6.7,13.1-9.1,23.1-20.5,33.1-31.7Z"/>
          <path class="cls-5" d="M64.6,638.7c15.5-1.8,30.1-8.1,45.4-10.8,14.6-2.6,29.9-1.9,44.2,2,12.1,3.3,25,10.6,27.4,22.9,2.6,13.2-8,25.2-18.9,33.2-6.1,4.4-12.7,8.6-18.2,13.6,12-4,27.9-1.8,41.3-4.5,13.6-2.8,25-11,38.8-12.9,7.5-1,15.3-.2,22.5-2.1,18-4.9,24-25.1,30.4-37.9,10.3-20.9,18.4-42.6,27.9-63.7,2.5-5.5,5.1-11.2,10-15.6,9.6-8.6,25.2-10.1,39.4-11.1,15.4-1.1,31.5-1.9,45.6,3.1,14.9,5.3,25.2,16.3,36.9,25.3,24.8,19.2,60.6,31,94.2,25,35.5-6.2,62.9-30.4,98.3-36.8,6-1.1,12.6-1.5,18.5-.5-2.2-2.3-4.2-4.8-6.3-7.2-9.8-11.5-22.6-20.7-35.2-29.8-7.2-5.2-14.9-10.5-24.1-11.9-19.5-3-35.5,12.2-51.9,22.1-23.9,14.4-54.7,18.2-83.3,14.2-28.6-4-55.3-15.3-79.8-28.9-12.9-7.2-25.9-15.7-31.9-28.1-2.1-4.4-3.3-9-3.9-13.7-1.7,1.8-4.4,2.9-8.3,3-24.2.9-46.4-14.5-62-33.1-15.6-18.6-26.6-40.6-41.6-59.7-3.6-4.6-8.3-9.4-14.1-8.9-3.9.3-7.1,2.9-9.8,5.7-3.1,3.1-6.2,7.2-5.1,11.5.6,2.3,2.3,4.1,3.9,5.8,14.1,15.1,25.8,32.5,34.4,51.3,2.3,5,4.3,10,6.2,15.2,4.6,12.9,8,29-1.8,40.4-13.8,16.1-40.9,9.5-58.8,20.8-8.4,5.3-13.9,14.1-19.8,22.2-18.1,24.8-44.8,45.6-75.4,47.4-25.8,1.4-52.9-15.1-60.8-38.6-5.5,2.7-11.6,4.8-17.7,6.2-.4,0-.8.2-1.3.3v55.2c.9.3,1.8.5,2.6.8,20.2,5.7,41.1,11.4,62,8.9Z"/>
          <path class="cls-5" d="M143.7,1542.2c44.9,3.7,79.9,40.8,123.1,53.4,23,6.7,47.3,6.1,71.2,5.5,44.6-1.2,89.1-2.3,133.7-3.5-10.5-3.6-20.7-8.8-30.4-14-21.4-11.4-44.5-26.7-42.9-53.7.9-15.3-1-45,15.6-50.3,16.9-5.5,34.8,4.5,52.5-4.1,14.6-7.1,23.6-20.6,29.4-35.1,6.8-17.3,10.3-20.1,29.2-22.5,30.4-3.8,55.1-27.8,68.2-55.5,13-27.7,16.4-58.8,19.4-89.2,2.5-24.8,4.7-50.4-2.6-74.3-3.6-11.8-9.6-22.8-12.5-34.8-3.8-15.4-2.5-31.6-.3-47.4,3.7-27.3,10.1-55.1,26.3-77.4,5.1-7,11.4-13.6,19.5-16.9,3-1.2,6-1.9,8.9-2.2-33.9-5.4-70,13.1-105.1,10-17.9-1.6-34.8-8.7-51.2-16.1-23.3-10.6-47.7-23.5-62.3-43.7-.8,4.5-1.8,9-2.8,13.3-1.2,5-2.5,10.2-6.1,13.9-2.8,2.8-6.8,4.3-10.5,5.7-15,5.4-31.3,10.8-46.9,11.3,40.8,23.6,80.2,50.5,105,90,46.5,74,29.6,169.6,11.2,255-2,9.1-4.1,18.6-9.7,26.1-6.5,8.7-16.7,13.7-26.5,18.3-64.2,29.9-129.3,57.6-195.4,83-27.6,10.6-59.9,20.6-85.4,5.6-34.9-20.4-41.4-79.1-81.3-85.7-21-3.5-41.2,11-53.5,28.4-9.8,13.9-20,30.5-31.2,46.7v115.3c48.9-18,91.9-59.2,143.7-55Z"/>
          <path class="cls-5" d="M39.6,500.6c12.9-19.8,24.1-40.6,33.5-62.2,14.1-32.4,22.8-73.8-.7-100.2-7.6-8.5-17.7-14.3-27.9-19.5-14-7.2-28.6-14.5-43.5-19.7-.3-.1-.7-.2-1-.4v209.1c10.3,1.1,20.5,3.7,30.2,7.6,3.1-5,6.3-9.8,9.4-14.6Z"/>
          <path class="cls-5" d="M97.4,186.1c21.1.1,43.5,7.7,64.5,2.9,16.9-3.9,30.1-15.8,38-31,4.1-7.8,6.9-16.1,9.3-24.5,1.1-4.1,2.1-8.3,3.1-12.4.4-1.8,1-9.1,2.4-10.3.9-.7,2.7-1.8,4.7-2,28.8-2.3,53.3,12,81.6,17.9,9.4,1.8,18.7,3.5,28.2,4.6,15.1,1.7,30.4,1.4,45.7,1,39.6-1.3,80.7-4.7,115.1-24.3,3.3-1.9,6.7-4,10.2-6.2-35.7-3.7-72.4-20.4-103.4-39.8-35.1-22-70.7-48-109-62h-110.7c-44.5,13.7-88.1,34.8-131.4,21.2-5.4-1.7-10.8-4-14.6-8.2-3.3-3.6-5.1-8.3-6.7-13H0v208.6c2.5-.6,4.9-1.3,7.4-1.9,29.8-8,59.1-20.8,90-20.7Z"/>
          <path class="cls-5" d="M570.1,87.1c-2.7,1.7-5.5,3.3-8.4,4.7,6.5,4.8,11.4,11.8,15.6,18.8,16.5,27.6,25.6,59.6,26.1,91.7,0,3.4-.1,7.2-2.6,9.6-1.8,1.7-4.3,2.3-6.8,2.6-21,2.2-61.2-27.6-75.4-.4-6.4,12.3,2.9,26.7,12.4,36.9,9.5,10.2,20.4,22.5,17.1,36-4.1,17.2-26.7,20.8-44.4,20.7-16.8,0-33.6,0-50.3,0-3.7,0-7.9.2-10.5,2.8-2,2.1-2.6,5.1-2.9,8-1.5,11.9-1.3,24.1.4,36,1.5,9.9,5.4,19.3,8.8,28.8.4,1.2.9,2.4.8,3.7,0,1.3-.6,2.6-1.7,3.2-.8.5-1.8.4-2.8.4-14.2-.3-28.5-.8-42.7-.8-16.3,0-32.6,0-48.9,0-4.6,0-9.5,0-13.4,2.5-3.1,1.9-5.2,5.1-6.7,8.4-6.8,14-7,31.3-5.6,46.5.3,3.5,2,8.6,3.5,13.9.3-2.5,1.1-4.8,2.9-6.7,2-2,4.9-3.1,7.8-3.8,22.3-5.6,44.6,6.9,65.7,15.5,16.9,6.9,35.4,11.6,54.1,10.6,18.6-1,37.4-8.1,48.5-21.3,2.7-3.2,5-6.7,8.3-9.4,11.2-8.9,27.9-5,41.4-5.3,13.5-.2,20.7-3.2,30.9-10.3,24.4-17.1,49.2-29.7,66.4-53.6,2.8-3.9,6.2-8.3,11.4-8.5,2.9,0,5.5,1.2,7.9,2.7,14.9,9.1,24.4,24.6,24.8,40.6.3,9.3-2.3,19.3,2.6,27.6,6.7,11.6,23.8,14.1,37.5,19.2,1.2.4,2.4.9,3.6,1.4-1.2-2.7-2.1-5.7-2.8-8.6-7.7-29.7-7.3-61.5,1.2-91.1,3.5-12.2,8.3-24.2,9.6-36.8,3-30.7-15.1-64.7,1.4-90.7,7.6-12,21-19.1,30.5-29.7,23.6-26.8,16.6-67.6,9.1-102.5-7.1-33.3-13.3-66.8-18.6-100.4h-107.4c-15.8,9-30.4,20-43.2,32.9-18.2,18.3-33.2,40.4-55,54.2Z"/>
          <path class="cls-5" d="M48.7,904.2c4,4.7,7.5,10.1,13,12.9,11.9,6.2,27.4-4.3,29.9-17.4,2.5-13.2-4.8-26.5-14.7-35.6-9.8-9.1-22.1-15.1-33.3-22.5s-21.8-17-25.7-29.8c-8.1-26.7,15.7-55.8,6.2-82-4.2-11.8-14.4-20.2-24.1-28.1v179.3c18.5.9,36.7,9.1,48.7,23.2Z"/>
          <path class="cls-5" d="M168.1,1077.4c31.3-13.7,56.4-38.1,81.1-61.7,15.3-14.6,33-30.1,54.2-29.7,3.4,0,6.8.6,10.1,1.4-2.1-2-4.2-3.9-6.4-5.8-11.1-9.4-26.4-16.7-40-11.3-15.7,6.2-20.9,25.3-31.8,38.1-18.5,21.6-51.8,23-79.3,16-27.6-7-53.6-20.7-81.9-23.3-24.8-2.2-49.3,4.2-74,7.7v76.5c57.3,4.8,116.1,14.8,168.1-8Z"/>
          <path class="cls-5" d="M494.5,861.1c21.2,1,40.8,10.9,60.8,18.2,19,6.9,80.7,17.1,73.3-20.3-2.9-14.6-14.8-27.9-21.6-40.8-4.4-8.4-16-33.6-12.3-47.3-5.5-2.4-10.6-5.4-15.7-8.3-29.9-17.1-66.3-31.2-102.2-25-20.6,3.6-38.5,13.4-57.4,20.9-18.9,7.5-41.4,12.6-60.8,6.1-6.8-2.3-12.8-5.8-19.3-8.6-27.9-12.1-61.8-9.9-93-5.3-31.2,4.6-62.9,11.3-94.1,6.9-1.3-.2-2.6-.4-3.8-.6,4.3,4.1,9,7.8,13.9,10.7,19,11.5,41.6,19.2,54.2,37.5,10.4,15.2,12.1,35.6,24.6,49.1,11.2,12,28.4,15.8,44.4,19,31.5,6.3,63,12.5,94.6,18.8,15.6,3.1,32.2,6.8,43.2,18.3,0,0,0,0,0,0,2.3-7.5,5.7-14.5,10.4-20.8,13.9-18.7,37.5-29.6,60.8-28.5Z"/>
          <path class="cls-5" d="M714,1061.5c.9,6.3-2.7,12.7-1.1,18.8,2.6,9.9,16.9,11.5,25.6,6.1,5.3-3.3,9.4-8.2,13.4-13.1-14.7-1.4-28.8-9.6-40.8-18.8,1.5,2.1,2.5,4.4,2.9,6.9Z"/>
          <path class="cls-5" d="M593.6,1566.5c4.4-3.1,8.4-6.7,12.3-10.5-2-2-3.6-4.2-4.8-6.7-2.2-4.7-2.5-10.1-2.6-15.3-.2-11.9.7-23.8,2.5-35.6-15.2,30.6-34,58.9-58.9,82.5-8.3,7.8-17.4,15.2-28.2,18.8-2.4.8-4.7,1.4-7.1,1.8,1.4.6,2.7,1.4,3.9,2.2,3.8,2.5,6.9,5.8,9.5,9.5,13.3-25.4,49.3-29.8,73.4-46.8Z"/>
          <path class="cls-5" d="M664.2,1325.8c-9.7,17.1-15.1,36.3-20.5,55.2-5.4,18.6-11.1,37.4-17.5,55.9,13.6-10.3,33-11.7,50.6-12.3,9-.3,18-.6,27.1-.8-.1-8.8-.4-17.3-.3-24.9.4-38.1-1.7-76.4-3.2-114.6-14.4,11.7-26.9,25.2-36.1,41.4Z"/>
          <path class="cls-5" d="M783.7,528.1c-1.7,2.8-4.4,5.1-7,7.2-29.5,23.6-68.6,37.7-108.4,39.2-2.2,0-4.4.1-6.5,0,2.4,2.6,3.9,5.7,4.9,8.9,4.7,14.2,1.1,29.4-5.4,43.2-6.5,13.7-15.7,26.5-22.7,40.1-3.2,6.2-5.9,12.7-5.6,19.4.7,17.1,20.4,30,25.3,46.7,3.5,12.1-1.8,25.6-13.3,33.9-4.7,3.4-10.3,5.8-16.3,7.2,10.1,5.7,20,12.1,29.4,18.9,8.1,5.9,16.1,12.3,25.6,15.6,28.6,9.9,58-11.2,88-14.9,24.6-3,50.3,5.7,74.1-1.2,13.5-3.9,25-12.4,37.4-18.9,12.4-6.5,27.2-11,40.3-6.1,11.1,4.2,18.7,14.2,28,21.7,31.5,25.5,78.3,19.2,115.4,3,6.4-2.8,13.9-5.8,20.3-4.4-.5-6,.6-12.3,1.7-18.3,9.9-52.9,15.9-106.6,17.9-160.4.3-7.6.5-15.2-1.6-22.5-4.3-15.1-17.9-26.4-21.7-41.7-.4-1.7-.7-3.3-.9-5-15.6,15.6-39.8,30-53,42-5.7,5.1-11.6,10.5-14.8,17.5-4.8,10.5-2.9,22.7-1.9,34.3,3,36.9-6.3,74.7-26,106-6.3,10-13.9,19.6-24.3,25.3-19.7,10.6-45.3,3.8-61.7-11.4s-24.7-37.2-29.4-59c-4.3-20.2-5.7-42.1,3.1-60.7,3.7-7.9,9.2-15,12.3-23.3,6.4-16.8,2-36.3-7.7-51.4s-24-26.7-38.5-37.2c-21.8-15.8-44.9-29.9-68.8-42.3,8.8,10.5,14.1,23.4,14.4,36.4,0,4.2-.3,8.5-2.6,12.2Z"/>
          <path class="cls-5" d="M1128.2,853.2c6.1,2.4,12.9,3.5,17.9,7.7,0,0,.2.2.3.2-9.5-16.9-22-32-37-44.2-3.1-2.5-6.4-5-9.5-7.7.2,3,.4,6.1.8,8.9,2.1,15.5,13,29.4,27.6,35.1Z"/>
          <path class="cls-5" d="M1145.5,892.8c-8.4,8.4-21.6,10.5-33.3,8.6-11.8-1.9-22.6-7.3-33.6-12-35.4-15.3-73.1-24.2-110.6-33-4-1-8.4-1.9-12.2-.2-3.8,1.7-6,5.6-8.2,9.1-8.9,14.6-22.1,28.2-39.1,30.2-17,2-32.8-7.9-49.4-11.9-12.9-3.2-27-2.7-38.9,3.2-11.9,5.9-21.2,17.6-22.4,30.8-.9,9.3,2.2,18.6,4.5,27.6,4.4,17,6.7,34.6,6.7,52.2,0,16-2.1,32.5-9.3,46.7-3,5.8-6.9,11.2-11.6,15.8,7,6.5,8.3,20,17.7,21.2,5.5.7,10.3-3.6,14.1-7.5,26.8-27.7,54.4-57.3,91-69.3,12.5-4.1,26.1-6,38.7-2.3,12.6,3.7,23.8,13.8,26.1,26.7,2.4,13.7-5.1,27-12.5,38.7-9.4,14.7-19.6,29.6-34.4,39-11,7-23.9,10.5-36,15.5-12.9,5.4-25,12.6-35.9,21.4,21.4,5.6,41.4,17.4,62,26.2,56.3,24.2,124.7,26,175.6-7.4,44.3-29.1,69.9-79.9,107.5-116.9-19.5-4.7-32.4-25.5-35.7-45.7-3.5-21.5.7-43.5.3-65.2-.4-21.2-5.4-42.3-14.2-61.5.9,7.1-1.6,14.9-6.7,20.1Z"/>
          <path class="cls-5" d="M1022,1770.7c-3.3,7.7-7.8,15.4-11.4,22.8-7.1,14.5-11.4,30-8.9,45,2.4,15,12.3,29.5,28.8,37.2,4,1.9,8.4,3.3,11.8,5.8,11.4,8.2,7.9,22.2,9.2,33.1,1.2,11,5.2,16.5,14.4,24.1,17.2,14.1,31.3,28.7,50.8,39.9,5.2-25.6,14.7-50.5,14.8-76.6.1-28.5-11-55.7-16.3-83.7-3-15.9-3.5-33.3.4-48.8-6.7,3.3-13.6,6.1-20.9,8.1-24.9,6.8-49.6,3-72.8-7.1Z"/>
          <path class="cls-5" d="M1124.7,318c-4-25.8-5.5-51.9-4.6-78,.1-3.7.5-7.7,3-10.3,2.3-2.3,5.7-2.9,8.9-3.3,6.5-.8,13.1-1.4,19.6-1.6-7.4-18.5-12.3-38.1-5.4-56.3,5.2-13.6,16.2-24,24.6-35.9,8.4-11.9,14.4-27.8,7.9-40.8-7.5-15.1-27-18.6-40.7-28.4-13.4-9.6-20.5-24.7-23.1-41.3-6,2.3-12.3,3.8-18.8,4.5-11.1,1.2-23.2.1-32.8,4.9-13.4,6.7-15.2,20.8-20.3,32.5-9.5,21.8-36.3,39-65.5,41.9-.7,0-1.4.1-2.1.2,30,44.2,51,94.5,60.7,147,3,16.2,5,32.9,2.4,49.2-2.9,18.4-11.3,35.4-15.4,53.5s-3.1,39.3,10.1,52.3c11.8,11.6,30.2,13.9,42.9,24.5,13.6,11.3,22.3,39.4,22.9,63.3,7.9-10.3,16.8-19.8,23.4-30.9,25.5-43.1,9.8-97.4,2.2-147Z"/>
          <path class="cls-5" d="M1256,370.9c7.7,5.7,16.8,9,24.8,14.2,19.8,12.9,30.8,35.9,35.7,59,6.1,28.6,12,64.7.5,92.6-10.4,25.3-36.2,44.2-39.5,72.5-2.7,23.5,12.6,44.8,21.3,66.8,5.3,13.2,8.2,27.1,10.7,41.2,9.1-7.6,20.1-12.4,30.7-17.6,34.5-17.1,65.7-40.1,96.8-62.9,3.3-2.5,6.9-5.2,8.1-9.2,1.2-4-.4-8.2-1.7-12.1-5.4-16.2-7.1-35.1,2.3-49.3,9.4-14.3,27.2-19.9,41.1-30,10.8-7.8,19.5-18.8,22.7-31.7,3.2-12.9.3-27.6-9-37.1-6.6-6.7-15.5-10.4-24-14.4-7.3-3.5-14.4-7.5-21.3-11.9-17.9,2.4-35.5,5.8-53.3,8.2-6,.8-12.2,1.6-18.5-.2-12.3-3.6-21.9-16-30.3-27.6-9-12.5-18.3-25.7-21.5-40.3-3.4-15.4.5-30,2-44.7,3.2-31.3-5.8-67.8-28.6-93.2-11.7-13-26-22.2-40.3-31.2-1.9,11.2-5.2,22.1-12.6,30.5-10.8,12.2-26.7,15.8-43.4,15.9,5.6,18.9,11.2,37.9,16.7,56.8,6.1,20.8,13.3,43.1,30.7,56Z"/>
          <path class="cls-5" d="M1090.9,1581.8c2.1,8.5,3.2,17.5,7.8,25,4.9,7.9,13.2,13.1,21.4,17.6,25.3,14.2,54.5,25.5,83.3,28.9,1.4-3.5,2.8-7.1,4.2-10.6,2.4-6,5.1-12.1,9.8-16.5,9.7-9.1,24.8-8.3,38-6.8,10,1.1,21.4,3.2,26.4,11.9.8,1.4,1.4,2.8,1.8,4.3,3.9-2.6,8.1-5.4,12.3-7.7,1.4-3.7,2.9-7.2,5.1-10.6,4-6.4,9.7-11.9,12.8-18.6,7.8-16.9-3.8-34.5-9.6-47.6-9.4-21.3-20.9-41.4-31.1-62.3-2.7-5.5-5.3-11.1-5.6-17.7-.2-6.1,1.7-12.3,4.6-18.3-56.2-11.6-116.2-12.2-163.4,18.5-22.4,14.6-39.9,35-57.4,55.5,18,9.8,32.3,25.9,39.5,54.9Z"/>
          <path class="cls-4" d="M18.9,567.3c-1.5-4.5-2.3-9.2-2.2-14,.1-13.7,6.2-26.1,13.5-37.9-9.6-3.9-19.8-6.4-30.2-7.6v66.1c.4-.1.8-.2,1.3-.3,6.1-1.4,12.1-3.5,17.7-6.2Z"/>
          <path class="cls-4" d="M74,1001.2c28.3,2.6,54.4,16.2,81.9,23.3,27.6,7,60.9,5.7,79.3-16,10.9-12.8,16.1-32,31.8-38.1,13.6-5.3,28.9,1.9,40,11.3,2.2,1.9,4.3,3.8,6.4,5.8,9.2,2.3,17.9,7,26.3,11.7,9,5,18.1,10,27.1,15.2,15.7-.4,31.9-5.8,46.9-11.3,3.8-1.4,7.7-2.8,10.5-5.7,3.6-3.6,4.9-8.9,6.1-13.9,1-4.3,2-8.8,2.8-13.3-3.2-4.4-5.9-9.2-8.1-14.3-5.9-14.3-6.4-30.7-1.9-45.5,0,0,0,0,0,0-11-11.5-27.6-15.2-43.2-18.3-31.5-6.3-63-12.5-94.6-18.8-16.1-3.2-33.3-7-44.4-19-12.5-13.5-14.2-33.9-24.6-49.1-12.5-18.3-35.2-25.9-54.2-37.5-4.9-3-9.6-6.6-13.9-10.7-4.7-.9-9.2-2.2-12.7-4.8-7.6-5.6-8-15.1-7.9-23.4.2-8.6.7-18.2,8-24.5,2.5-2.2,5.4-3.7,8.6-4.7,5.6-5,12.2-9.2,18.2-13.6,10.9-7.9,21.5-19.9,18.9-33.2-2.4-12.3-15.3-19.6-27.4-22.9-14.4-3.9-29.6-4.6-44.2-2-15.3,2.7-29.9,9-45.4,10.8-20.9,2.5-41.8-3.3-62-8.9-.9-.2-1.7-.5-2.6-.8v72.6c9.7,7.9,19.9,16.3,24.1,28.1,9.5,26.2-14.3,55.4-6.2,82,3.9,12.8,14.5,22.4,25.7,29.8s23.4,13.4,33.3,22.5c9.8,9.1,17.2,22.4,14.7,35.6-2.5,13.2-18,23.6-29.9,17.4-5.5-2.8-9-8.3-13-12.9-12-14.1-30.2-22.3-48.7-23.2v128c24.7-3.5,49.2-10,74-7.7Z"/>
          <path class="cls-3" d="M542,1581c24.9-23.6,43.7-51.9,58.9-82.5,1.7-10.9,4.1-21.6,7.4-32.1,2.7-8.8,6.2-17.5,12.3-24.4,1.7-1.9,3.6-3.6,5.6-5.1,6.4-18.5,12.1-37.3,17.5-55.9,5.5-18.9,10.8-38.1,20.5-55.2,9.2-16.2,21.7-29.8,36.1-41.4-.4-11.7-.8-23.5-1.1-35.2-.3-13-.4-26.5,4.2-38.6,9-23.8,33.7-36.9,56.4-47.9,24.6-11.9,50.5-23.9,77.8-22.4,6.5.4,12.8,1.5,19,3.1,10.9-8.8,23-16,35.9-21.4,12.1-5,25-8.5,36-15.5,14.7-9.4,25-24.3,34.4-39,7.5-11.7,15-25,12.5-38.7-2.3-12.9-13.5-23-26.1-26.7-12.6-3.7-26.3-1.8-38.7,2.3-36.6,12.1-64.2,41.6-91,69.3-3.9,4-8.6,8.3-14.1,7.5-9.4-1.3-10.7-14.7-17.7-21.2-6.8,6.7-15.3,11.5-24.7,13.1-3.8.6-7.6.7-11.4.4-4,4.9-8.1,9.7-13.4,13.1-8.7,5.4-23,3.8-25.6-6.1-1.6-6.1,2.1-12.6,1.1-18.8-.4-2.5-1.5-4.8-2.9-6.9,0,0-.2-.1-.3-.2-15.2-11.6-29.4-25.4-47.5-31.5-3.8-1.3-7.6-2.2-11.4-2.8-3,.3-6,1-8.9,2.2-8.1,3.3-14.4,9.9-19.5,16.9-16.2,22.3-22.6,50.1-26.3,77.4-2.1,15.8-3.5,32,.3,47.4,3,12,8.9,23,12.5,34.8,7.4,23.8,5.1,49.5,2.6,74.3-3,30.4-6.3,61.5-19.4,89.2-13,27.7-37.8,51.7-68.2,55.5-19,2.3-22.4,5.2-29.2,22.5-5.8,14.6-14.8,28-29.4,35.1-17.7,8.6-35.6-1.4-52.5,4.1-16.5,5.3-14.6,35-15.6,50.3-1.6,27,21.5,42.3,42.9,53.7,9.6,5.1,19.9,10.3,30.4,14,1,0,2.1,0,3.1,0,10.8-.3,22.3-.4,31.9,4.2,2.4-.4,4.7-1,7.1-1.8,10.8-3.6,19.9-11,28.2-18.8Z"/>
          <path class="cls-3" d="M44.5,318.7c10.1,5.2,20.3,11,27.9,19.5,23.5,26.4,14.8,67.8.7,100.2-9.4,21.6-20.6,42.5-33.5,62.2-3.1,4.8-6.4,9.7-9.4,14.6-7.3,11.8-13.3,24.3-13.5,37.9,0,4.9.8,9.6,2.2,14,7.8,23.5,35,40.1,60.8,38.6,30.6-1.7,57.3-22.6,75.4-47.4,5.9-8,11.4-16.8,19.8-22.2,17.9-11.3,45.1-4.7,58.8-20.8,9.8-11.4,6.4-27.5,1.8-40.4-1.8-5.1-3.9-10.2-6.2-15.2-8.6-18.8-20.3-36.2-34.4-51.3-1.6-1.7-3.3-3.5-3.9-5.8-1.1-4.3,2-8.4,5.1-11.5,2.7-2.7,6-5.4,9.8-5.7,5.8-.5,10.5,4.3,14.1,8.9,15,19.1,26,41.1,41.6,59.7,15.6,18.6,37.7,34.1,62,33.1,3.9-.2,6.6-1.3,8.3-3-.8-6.2-.6-12.7-.4-19,0-1.4.1-2.8.3-4.2-1.5-5.3-3.2-10.4-3.5-13.9-1.4-15.2-1.2-32.5,5.6-46.5,1.6-3.3,3.7-6.5,6.7-8.4,3.9-2.4,8.8-2.5,13.4-2.5,16.3,0,32.6,0,48.9,0,14.2,0,28.5.4,42.7.8,1,0,2,0,2.8-.4,1.1-.6,1.7-2,1.7-3.2,0-1.3-.4-2.5-.8-3.7-3.4-9.4-7.3-18.8-8.8-28.8-1.8-11.9-1.9-24-.4-36,.4-2.9.9-5.9,2.9-8,2.6-2.7,6.8-2.8,10.5-2.8,16.8,0,33.6,0,50.3,0,17.7,0,40.3-3.5,44.4-20.7,3.2-13.5-7.7-25.8-17.1-36-9.5-10.2-18.8-24.6-12.4-36.9,14.2-27.2,54.4,2.6,75.4.4,2.4-.3,5-.9,6.8-2.6,2.4-2.4,2.6-6.2,2.6-9.6-.5-32.2-9.5-64.1-26.1-91.7-4.2-7-9.2-14-15.6-18.8-19.1,9.6-40.2,12.2-61.6,10-3.5,2.2-6.9,4.3-10.2,6.2-34.4,19.6-75.5,23.1-115.1,24.3-15.2.5-30.5.7-45.7-1-9.5-1-18.9-2.8-28.2-4.6-28.3-5.9-52.8-20.3-81.6-17.9-2,.2-3.9,1.3-4.7,2-1.4,1.2-2,8.5-2.4,10.3-.9,4.2-1.9,8.3-3.1,12.4-2.3,8.4-5.2,16.7-9.3,24.5-7.9,15.1-21.1,27.1-38,31-21,4.8-43.3-2.8-64.5-2.9-30.9-.2-60.1,12.7-90,20.7-2.5.7-4.9,1.3-7.4,1.9v90c.3.1.7.2,1,.4,14.9,5.2,29.5,12.5,43.5,19.7Z"/>
          <path class="cls-4" d="M710.8,1054.4c0,0,.2.1.3.2,12,9.2,26.1,17.4,40.8,18.8,3.8.4,7.6.3,11.4-.4,9.4-1.6,17.8-6.4,24.7-13.1,4.7-4.6,8.7-10,11.6-15.8,7.3-14.3,9.3-30.7,9.3-46.7,0-17.6-2.2-35.2-6.7-52.2-2.4-9.1-5.4-18.3-4.5-27.6,1.2-13.2,10.5-25,22.4-30.8,11.9-5.9,26-6.4,38.9-3.2,16.6,4.1,32.5,14,49.4,11.9,16.9-2,30.2-15.6,39.1-30.2,2.2-3.5,4.4-7.4,8.2-9.1,3.8-1.7,8.2-.8,12.2.2,37.5,8.8,75.2,17.8,110.6,33,10.9,4.7,21.8,10.1,33.6,12,11.8,1.9,24.9-.1,33.3-8.6,5.1-5.1,7.6-13,6.7-20.1-1.8-3.9-3.8-7.8-5.9-11.5,0,0-.2-.2-.3-.2-5-4.2-11.8-5.3-17.9-7.7-14.5-5.7-25.5-19.6-27.6-35.1-.4-2.9-.6-5.9-.8-8.9-4.9-4.3-9.2-9-11.2-15.1-.7-2.1-1.2-4.3-1.3-6.5-6.5-1.4-13.9,1.6-20.3,4.4-37.1,16.2-84,22.5-115.4-3-9.2-7.5-16.9-17.5-28-21.7-13.1-4.9-27.9-.4-40.3,6.1-12.4,6.5-23.9,15-37.4,18.9-23.8,6.9-49.5-1.9-74.1,1.2-30,3.7-59.4,24.7-88,14.9-9.5-3.3-17.5-9.7-25.6-15.6-9.4-6.9-19.3-13.2-29.4-18.9-8.8,2.1-18.4,2.1-27-.4-2.4-.7-4.7-1.6-7-2.6-3.7,13.7,7.8,38.9,12.3,47.3,6.8,12.9,18.7,26.2,21.6,40.8,7.4,37.4-54.3,27.2-73.3,20.3-20-7.3-39.5-17.2-60.8-18.2-23.3-1.1-46.9,9.8-60.8,28.5-4.6,6.3-8.1,13.3-10.4,20.8-4.5,14.8-4.1,31.2,1.9,45.5,2.1,5.2,4.9,9.9,8.1,14.3,14.6,20.2,39,33.2,62.3,43.7,16.4,7.4,33.3,14.6,51.2,16.1,35.2,3.1,71.2-15.4,105.1-10,3.8.6,7.6,1.5,11.4,2.8,18.1,6.1,32.3,19.9,47.5,31.5Z"/>
          <path class="cls-4" d="M661.8,574.5c2.2.2,4.4.2,6.5,0,39.8-1.5,78.9-15.6,108.4-39.2,2.7-2.1,5.3-4.4,7-7.2,2.2-3.7,2.7-8,2.6-12.2-.3-13.1-5.6-25.9-14.4-36.4-3-1.5-5.9-3-8.9-4.5-5-2.5-10.3-5-13.9-9.3-1.5-1.7-2.6-3.7-3.5-5.8-1.2-.5-2.4-1-3.6-1.4-13.7-5-30.8-7.5-37.5-19.2-4.8-8.3-2.3-18.3-2.6-27.6-.4-15.9-10-31.5-24.8-40.6-2.3-1.4-5-2.8-7.9-2.7-5.2.1-8.6,4.6-11.4,8.5-17.2,23.9-42,36.6-66.4,53.6-10.2,7.1-17.4,10-30.9,10.3-13.5.2-30.2-3.6-41.4,5.3-3.4,2.7-5.6,6.2-8.3,9.4-11.1,13.2-29.9,20.4-48.5,21.3-18.6,1-37.1-3.7-54.1-10.6-21.1-8.6-43.3-21.1-65.7-15.5-2.9.7-5.8,1.8-7.8,3.8-1.8,1.9-2.6,4.2-2.9,6.7-.2,1.4-.3,2.8-.3,4.2-.2,6.3-.4,12.7.4,19,.6,4.7,1.8,9.3,3.9,13.7,6.1,12.3,19,20.9,31.9,28.1,24.5,13.7,51.2,24.9,79.8,28.9,28.6,4,59.4.2,83.3-14.2,16.4-9.8,32.4-25,51.9-22.1,9.2,1.4,16.9,6.8,24.1,11.9,12.7,9.1,25.5,18.3,35.2,29.8,2,2.4,4,4.9,6.3,7.2,4.2.7,8.1,2.1,11.2,4.6.8.7,1.6,1.4,2.3,2.1Z"/>
          <path class="cls-4" d="M1742.4,1136.1c14.5-7.7,29.4-14.5,44.6-20.5,1.7-22.2-10.5-45.7-31.4-59.3-12.2-8-28.3-14.2-32.3-27-2.9-9.2,1.8-18.3,3.6-27.5,3.1-15.6-2.7-32.9-15.2-45.1-2-1.9-4.3-3.8-7.1-4.4-5.1-1-9.4,2.6-13,5.7-22.1,19.5-49.1,26.3-76.6,37.5-11.5,4.7-19.2,5.9-32.5,3.2-13.2-2.8-28.7-10.3-41.6-4.1-3.9,1.9-6.9,4.8-10.2,7.3-13.8,10.4-33.6,13.2-52,10-18.4-3.2-35.4-11.9-50.4-22.4-10.7-7.5-21.4-16.3-33-22.4-9.4,4.9-18.9,9.7-28.4,14.4-5.6,2.8-11.2,5.5-17,7.9-.6,5-.5,10.1.7,15.1,3.2,13.4,13.9,24.6,24.9,34.5,20.8,18.8,44.4,35.7,71.4,45.9,27,10.3,57.9,13.4,84.4,4.7,18.1-5.9,37.1-17.2,55.5-10,8.6,3.4,14.9,10.3,20.8,17,10.3,11.6,20.8,23.5,27.7,36.8,3.1,5.9,5.8,12.5,11.9,16.1,3.2,1.9,6.9,2.7,10.5,3.4,18.6,3.5,37.7,4.2,56.2,2.2,8-7.9,18.1-13.9,28.2-19.2Z"/>
          <path class="cls-3" d="M1319.9,114.1c8.2-5.6,11.8-15.9,15.7-26.1-6.6.5-13.3.1-19.9-1-11.9-2.1-23.2-6.4-33.8-12.1-2.7,8.6-3.9,18-4.9,27-.7,6.2-1.4,12.4-2.1,18.6,8.5-.1,17-.1,25.4-.8,6.9-.6,13.9-1.7,19.5-5.5Z"/>
          <path class="cls-3" d="M1410.7,94.4c2.4,8.3,2.4,16.7,2.7,25,.4,10.9,1.4,22.2,3.4,33.5,2.4.4,4.7,1,7.1,1.9,8.6,3.4,14.9,10.3,20.8,17,10.3,11.6,20.8,23.5,27.7,36.8,3.1,5.9,5.8,12.5,11.9,16.1,3.2,1.9,6.9,2.7,10.5,3.4,20.6,3.9,41.7,4.3,62.1,1.4,5.7-9.6,12-18.8,19.8-26.5,12.8-12.6,29.2-20.9,45.4-28.6.1,0,.3-.1.4-.2-3.6-16.8-14.4-32.7-30.2-43-12.2-8-28.3-14.2-32.3-27-2.9-9.2,1.8-18.3,3.6-27.5,3.1-15.6-2.7-32.9-15.2-45.1-2-1.9-4.3-3.8-7.1-4.4-5.1-1-9.4,2.6-13,5.7-22.1,19.5-49.1,26.3-76.6,37.5-11.5,4.7-19.2,5.9-32.5,3.2-8.6-1.8-18-5.5-27.2-6.3,8.5,6.7,15.3,16.5,18.3,27Z"/>
          <path class="cls-4" d="M612.6,1561.4c-2.4-1.6-4.7-3.4-6.7-5.5-3.8,3.8-7.9,7.4-12.3,10.5-24.1,17-60.1,21.4-73.4,46.8,5.4,7.8,8.5,17.5,11.3,26.7,2.4,8.1,4.8,17.1,1.4,24.9-1.7,3.8-4.6,7-7.7,9.8,0,0,0,0,0,0,6.3,16.9,14.4,35.1,30.8,41.8,9.9,4,21.1,2.9,31.6.9,55.1-10.6,102.3-44.5,150.2-73.7,29.7-18.1,61.9-35,95.4-43.4-11.1-6.5-22.8-11.8-35.6-15.2-60.9-16.4-133,11.9-185-23.8Z"/>
          <path class="cls-4" d="M1240.3,1035.4c-10.1,7.1-22.4,12.1-34.7,10.5-1.3-.2-2.5-.4-3.8-.7-37.6,37-63.2,87.8-107.5,116.9-51,33.5-119.3,31.7-175.6,7.4-20.6-8.9-40.6-20.6-62-26.2-6.2-1.6-12.5-2.7-19-3.1-27.3-1.5-53.2,10.5-77.8,22.4-22.8,11-47.4,24.1-56.4,47.9-4.6,12.2-4.5,25.6-4.2,38.6.2,11.7.6,23.5,1.1,35.2,1.5,38.2,3.6,76.5,3.2,114.6,0,7.6.2,16.1.3,24.9,38.3-.9,77,0,114,9.5,45.7,11.7,72.7,44.5,113.9,62.6,38.2,16.9,85.5,12.6,119.6,31,17.5-20.5,35-40.9,57.4-55.5,47.2-30.7,107.2-30.1,163.4-18.5,3.2-6.6,7.7-13.1,12.1-19.1,9-12.5,18.7-25.4,31.6-33,13.6-8,28.6-8.9,43.1-12.1,18.7-4.1,37.9-13.2,53.9-26.3-2-5.4-4.6-10.5-7.9-15.3-21.2-31.6-64-45.9-78.7-81-5.8-13.7-6.4-29-6-43.8.8-32.6,6-64.9,5.8-97.5-.1-32.6-6.1-66.5-25.2-92.9-5.4-7.6-12.1-14.6-20.6-18.3-5.2-2.3-10.8-3.2-16.3-3-6.1,9.8-14.1,18.4-23.6,25Z"/>
          <path class="cls-3" d="M246.4,750.7c31.2-4.6,65.1-6.8,93,5.3,6.5,2.8,12.5,6.4,19.3,8.6,19.5,6.5,41.9,1.4,60.8-6.1,18.9-7.5,36.8-17.3,57.4-20.9,35.8-6.2,72.3,7.9,102.2,25,5.1,2.9,10.2,5.9,15.7,8.3,2.2,1,4.6,1.9,7,2.6,8.6,2.5,18.2,2.5,27,.4,6-1.4,11.6-3.9,16.3-7.2,11.5-8.3,16.8-21.8,13.3-33.9-4.8-16.7-24.6-29.6-25.3-46.7-.3-6.7,2.5-13.2,5.6-19.4,7-13.6,16.2-26.4,22.7-40.1,6.5-13.7,10.1-29,5.4-43.2-1.1-3.2-2.6-6.3-4.9-8.9-.7-.8-1.4-1.5-2.3-2.1-3.1-2.4-7-3.9-11.2-4.6-5.9-1-12.5-.6-18.5.5-35.4,6.5-62.8,30.6-98.3,36.8-33.6,5.9-69.4-5.8-94.2-25-11.7-9.1-22-20.1-36.9-25.3-14.1-5-30.2-4.1-45.6-3.1-14.2,1-29.9,2.6-39.4,11.1-4.9,4.4-7.5,10-10,15.6-9.5,21.1-17.6,42.8-27.9,63.7-6.3,12.8-12.4,33-30.4,37.9-7.2,2-15,1.1-22.5,2.1-13.8,1.9-25.2,10.1-38.8,12.9-13.4,2.7-29.3.5-41.3,4.5-3.2,1.1-6.1,2.6-8.6,4.7-7.3,6.3-7.9,15.8-8,24.5-.1,8.3.2,17.8,7.9,23.4,3.5,2.6,8,4,12.7,4.8,1.3.2,2.6.4,3.8.6,31.2,4.4,63-2.3,94.1-6.9Z"/>
          <path class="cls-3" d="M1274.7,1721.5c6.3,5.5,13.8,11.2,23,9,4-1,7.8-3.4,11.3-6.2-12.3-3.1-25-5-37.7-5.7,1.1,1,2.2,2,3.3,3Z"/>
          <path class="cls-3" d="M1315.8,1400.7c-12.9,7.6-22.5,20.6-31.6,33-4.4,6-8.9,12.5-12.1,19.1-2.9,6-4.8,12.2-4.6,18.3.2,6.6,2.9,12.2,5.6,17.7,10.1,20.8,21.6,41,31.1,62.3,5.8,13.1,17.4,30.7,9.6,47.6-3.1,6.8-8.8,12.3-12.8,18.6-2.1,3.4-3.7,7-5.1,10.6,9.5-5.3,19.4-8.5,28-2.8,8.2,5.4,10.2,16.3,10.7,26.1.9,17-.6,34.2-4.4,50.8,14.1-17.8,25.4-38.1,37.3-57.5,16.4-26.9,36.5-54.4,63.7-68,6.3-3.2,12.9-5.5,19-9.3,17.5-10.8,27.9-31.3,34.3-50.6,6.4-19.3,10.3-39.4,20.8-57.5,18.2-31.5,52.4-50.4,84.7-62.4,7.8-2.9,15.7-5.6,22.8-10.4,12.5-8.5,21.5-23.4,22.5-37.6,1-14.1-6-26.9-17.5-31.9-15.9-7-38.4-.1-52.1-10.5-5.3-4.1-8.6-10.4-11.3-16.8-6-14.1-9.9-29.3-16.2-43.1-6.4-13.8-15.7-26.3-29.7-31.8-4-1.6-8.4-2.5-13.1-1.5-9.3,2-17.1,11.1-22.2,20.2-17.7,31.3-16.8,67.8-34.7,99.1-6.6,11.5-15.5,21.6-25.7,30-16,13.2-35.2,22.2-53.9,26.3-14.5,3.2-29.5,4-43.1,12.1Z"/>
          <path class="cls-2" d="M1623.3,520.2c7.2-4.3,14.9-9.6,15.7-19,.4-5.5-1.7-11.4-4.1-16.9-.5-1.2-1.1-2.4-1.7-3.6-6.8,14.6-11.7,31-20.1,44.8,3.6-1.4,7-3.3,10.2-5.2Z"/>
          <path class="cls-2" d="M1304.9,243c22.8,25.4,31.8,61.9,28.6,93.2-1.5,14.8-5.4,29.3-2,44.7,3.2,14.6,12.5,27.8,21.5,40.3,8.4,11.6,18,24,30.3,27.6,6.3,1.8,12.5,1.1,18.5.2,17.8-2.4,35.5-5.7,53.3-8.2-8-5.1-15.6-10.7-22.8-16.9-12.2-10.4-23.4-22.6-29.6-37.4-6.2-14.8-6.8-32.6,1.5-46.4,9.8-16.4,29.5-23.9,48.1-27.9s38.3-6,54.7-15.8c5.6-3.4,10.6-7.5,15-12.1-7.4-10.7-17.5-19.9-27.7-27.4-16.3-12.1-34.2-22.1-48.1-37.7-16.5-18.5-25.2-42.3-29.4-66.4-2-11.2-3-22.6-3.4-33.5-.3-8.3-.4-16.6-2.7-25-3-10.5-9.8-20.3-18.3-27-3.2-2.5-6.7-4.6-10.4-6.1-13.1-5.4-27.4-2.7-35.8,6.7-4.9,5.4-7.8,12.7-10.6,20.1-3.9,10.2-7.5,20.5-15.7,26.1-5.5,3.8-12.5,4.9-19.5,5.5-8.4.7-16.9.7-25.4.8-2.9,25.8-5.7,51.5-8.6,77.3-.5,4.7-1.1,9.4-1.9,14.1,14.4,9,28.6,18.2,40.3,31.2Z"/>
          <path class="cls-3" d="M1264.7,972.9c-1.9-2.6-3.5-5.6-3.6-8.8-.2-7.8,8.4-13.1,15.8-16.6l4.4-2.1c2.8-17,7.2-32.9,19.5-44.5,11-10.3,26.8-14.9,36.4-26.6,11.2-13.5,11.1-33.4,6.1-50.2-5.1-16.8-14.5-32-20.6-48.4-.9-2.3-1.7-4.7-2.4-7.1-.7.2-1.4.4-2.2.5-11.8,2-22.9-9.1-23.9-21-1-11.9,5.9-23.3,15-31,0,0,.2-.1.2-.2-2.5-14.1-5.4-28-10.7-41.2-8.7-22-24-43.2-21.3-66.8,3.3-28.3,29.1-47.2,39.5-72.5,11.5-27.9,5.6-64-.5-92.6-4.9-23.1-15.9-46.1-35.7-59-8-5.2-17.1-8.6-24.8-14.2-17.5-12.9-24.6-35.2-30.7-56-5.6-18.9-11.2-37.9-16.7-56.8-9.7,0-19.6-1.1-28.9-2.4-5.1-.7-10.4-1.6-14.3-4.9-3.1-2.6-4.9-6.4-6.5-10-2.4-5.2-4.8-10.6-7-16-6.6.3-13.1.8-19.6,1.6-3.2.4-6.6,1-8.9,3.3-2.6,2.6-2.9,6.6-3,10.3-.9,26.1.6,52.2,4.6,78,7.6,49.5,23.3,103.8-2.2,147-6.6,11.1-15.5,20.6-23.4,30.9.3,10.9-1.2,20.9-4.6,28.1-2.5,5.3-6.7,10.6-11.8,15.7.2,1.7.5,3.3.9,5,3.8,15.3,17.4,26.5,21.7,41.7,2.1,7.3,1.9,15,1.6,22.5-2.1,53.8-8.1,107.4-17.9,160.4-1.1,6-2.3,12.3-1.7,18.3.2,2.2.6,4.4,1.3,6.5,2.1,6,6.4,10.8,11.2,15.1,3.1,2.7,6.4,5.2,9.5,7.7,15,12.2,27.6,27.4,37,44.2,2.1,3.8,4.1,7.6,5.9,11.5,8.9,19.3,13.9,40.3,14.2,61.5.4,21.8-3.8,43.7-.3,65.2,3.3,20.2,16.2,41,35.7,45.7,1.2.3,2.5.5,3.8.7,12.3,1.6,24.5-3.4,34.7-10.5,9.4-6.6,17.5-15.2,23.6-25,3.5-5.6,6.3-11.5,8.4-17.7,1-2.9,1.8-5.9,2.6-8.9-3.9-3.2-7.3-6.8-10.2-10.9Z"/>
          <path class="cls-2" d="M1395.4,967.2c25.6-13.3,50.8-27.3,75.6-41.9,24.9-14.6,54.4-30.6,80.6-20.5,10.5,4,19.1,12,30.1,14.3,23.9,5.1,45.5-17,69.7-23,10-2.4,20.3-2.1,30.4-2.8,24.6-1.7,49-9.8,69.9-23.2,3.6-2.3,7.2-4.9,9.4-8.4,2.4-3.8,3.1-8.3,3.7-12.6,3.6-23.3,9.3-46.4,16.9-69,4.5-13.4,9.9-26.9,19.1-37.9,9.2-11,23-19.4,37.4-19.2,7,.1,13.8,2.2,20.8,2.8,16.4,1.5,32.8-5.3,47.2-13.8,15.5-9.2,30.3-21.1,37.9-37,2.3-4.7,3.8-9.9,4.4-15-2.7-2.2-5.5-4.4-8.2-6.6-13.1-10.6-26.4-21.3-36.4-34.9-1-1.4-2-2.8-2.9-4.3-25.4-3.1-51.9.7-75.7,11-8.6,3.7-17.4,8.4-26.7,7.6-6.1-.5-11.6-3.4-16.9-6.2-16.4-8.6-40.9-30.3-59.9-32-20.3-1.9-57.7,18.8-65.4,37.5-5,12.1-2.3,26.1-8.3,37.7-6.8,13.1-22.7,19.4-37.5,21.2-14.8,1.8-29.9.1-44.6,2.9-13.1,2.5-25.3,8.3-37,14.8-58.4,32.5-106.4,83.1-134.4,142.2-8.8,18.6-16.3,38.7-32.1,52.5-8.7,7.6-19.3,12.6-29.7,17.6-17.1,8.1-34.2,16.2-51.3,24.3l-4.4,2.1c-7.4,3.5-15.9,8.8-15.8,16.6,0,3.2,1.8,6.2,3.6,8.8,2.9,4.1,6.3,7.7,10.2,10.9,11.7,9.6,27.3,14.9,43,14.1,11.1-.6,21.8-3.9,32.2-8.3,5.7-2.4,11.4-5.2,17-7.9,9.5-4.7,19-9.5,28.4-14.4Z"/>
          <path class="cls-2" d="M785.3,203c-9.4,10.7-22.9,17.7-30.5,29.7-16.5,26,1.6,60-1.4,90.7-1.2,12.6-6.1,24.6-9.6,36.8-8.4,29.5-8.8,61.3-1.2,91.1.8,2.9,1.6,5.9,2.8,8.6.9,2.1,2,4,3.5,5.8,3.6,4.3,8.9,6.8,13.9,9.3,3,1.5,6,3,8.9,4.5,24,12.3,47,26.5,68.8,42.3,14.6,10.5,28.9,22.1,38.5,37.2s14.1,34.6,7.7,51.4c-3.1,8.2-8.6,15.3-12.3,23.3-8.8,18.7-7.4,40.6-3.1,60.7,4.7,21.8,13.1,43.8,29.4,59s42,22,61.7,11.4c10.4-5.6,18-15.2,24.3-25.3,19.7-31.3,28.9-69.1,26-106-.9-11.5-2.9-23.7,1.9-34.3,3.2-7,9.1-12.3,14.8-17.5,13.2-11.9,37.5-26.4,53-42,5.1-5.1,9.3-10.4,11.8-15.7,3.4-7.2,4.8-17.2,4.6-28.1-.6-24-9.3-52-22.9-63.3-12.7-10.6-31.1-12.8-42.9-24.5-13.2-13-14.3-34.2-10.1-52.3s12.6-35.1,15.4-53.5c2.5-16.3.6-33-2.4-49.2-9.7-52.5-30.7-102.8-60.7-147-4.3.3-8.7.2-12.7-1-3.5-1.1-6.4-3-9.1-5-27.8-19.8-46.6-47.1-53-76.4-8.1-7.4-15.9-15.1-22.4-23.7h-102.6c5.3,33.6,11.5,67.1,18.6,100.4,7.4,34.9,14.5,75.8-9.1,102.5Z"/>
          <path class="cls-2" d="M84.8,1406.7c39.9,6.6,46.4,65.3,81.3,85.7,25.5,14.9,57.8,5,85.4-5.6,66.1-25.4,131.2-53.1,195.4-83,9.8-4.6,20-9.5,26.5-18.3,5.6-7.5,7.7-17,9.7-26.1,18.5-85.4,35.4-181-11.2-255-24.8-39.5-64.2-66.4-105-90-9-5.2-18.1-10.3-27.1-15.2-8.4-4.6-17.1-9.4-26.3-11.7-3.3-.8-6.7-1.3-10.1-1.4-21.2-.5-38.9,15-54.2,29.7-24.7,23.6-49.8,47.9-81.1,61.7-52,22.8-110.8,12.8-168.1,8v396.5c11.2-16.2,21.4-32.9,31.2-46.7,12.3-17.4,32.5-31.9,53.5-28.4Z"/>
          <path class="cls-4" d="M500.1,101.8c21.4,2.2,42.5-.4,61.6-10,2.8-1.4,5.6-3,8.4-4.7,21.8-13.8,36.8-35.9,55-54.2,12.8-12.9,27.4-23.9,43.2-32.9h-380.6c38.3,14,73.8,39.9,109,62,30.9,19.4,67.7,36.2,103.4,39.8Z"/>
          <path class="cls-4" d="M45.7,21.2c43.3,13.6,86.9-7.5,131.4-21.2H24.4c1.5,4.7,3.4,9.4,6.7,13,3.8,4.2,9.2,6.5,14.6,8.2Z"/>
          <path class="cls-4" d="M1115,22.1c2.6,16.5,9.7,31.7,23.1,41.3,13.7,9.8,33.2,13.4,40.7,28.4,6.5,13,.6,28.9-7.9,40.8-8.4,11.9-19.4,22.3-24.6,35.9-6.9,18.2-2,37.8,5.4,56.3,2.2,5.5,4.6,10.8,7,16,1.7,3.7,3.5,7.4,6.5,10,3.9,3.3,9.3,4.1,14.3,4.9,9.3,1.3,19.2,2.5,28.9,2.4,16.7,0,32.7-3.7,43.4-15.9,7.4-8.4,10.7-19.3,12.6-30.5.8-4.7,1.4-9.5,1.9-14.1,2.9-25.8,5.7-51.5,8.6-77.3.7-6.2,1.4-12.4,2.1-18.6,1-9,2.2-18.4,4.9-27,2.2-7,5.4-13.5,10.3-18.9,12.4-13.6,32.6-17.1,46.8-28.7,8.8-7.2,14.6-16.9,19.5-27.2h-214.2c-.4.8-1,1.5-1.5,2.2-6.5,8.6-16.4,15.5-27.9,19.9Z"/>
          <path class="cls-4" d="M1576.9,203c-7.8,7.7-14.1,16.9-19.8,26.5-11.3,19-20.5,39.7-35.1,54.9-4.4,4.6-9.3,8.7-15,12.1-16.4,9.8-36.1,11.8-54.7,15.8s-38.3,11.6-48.1,27.9c-8.2,13.8-7.7,31.6-1.5,46.4,6.2,14.8,17.4,27,29.6,37.4,7.2,6.1,14.9,11.8,22.8,16.9,6.8,4.4,13.9,8.3,21.3,11.9,8.5,4.1,17.4,7.7,24,14.4,9.3,9.5,12.2,24.2,9,37.1-3.2,12.9-12,24-22.7,31.7-13.9,10-31.7,15.7-41.1,30-9.4,14.2-7.6,33.2-2.3,49.3,1.3,3.9,2.8,8.1,1.7,12.1-1.2,4-4.7,6.7-8.1,9.2-31,22.9-62.2,45.9-96.8,62.9-10.6,5.2-21.6,10-30.7,17.6,0,0-.2.1-.2.2-9.1,7.7-16,19.1-15,31,1,11.9,12.1,23,23.9,21,.7-.1,1.5-.3,2.2-.5,5.5-1.6,10.2-5.4,15.3-8.1,13.7-7.4,31.5-6.7,44.6,1.7,8.8,5.6,17.7,14.9,27.7,11.8,8.3-2.6,11.6-12.3,14.1-20.6,11.7-38.8,37.2-78.6,77-86,11.7-2.2,24.2-1.5,34.6-7.3,12.2-6.8,18.4-21,21.5-34.6,3.1-13.7,4-28,9.8-40.8,10.2-22.6,33.4-36.5,47.1-57.3.5-.7.9-1.5,1.4-2.2,8.4-13.7,13.3-30.2,20.1-44.8,5.7-12.1,12.7-23,24.2-29.8,8.6-5.1,18.7-7.1,28.4-9.4,17.2-4.2,34.1-9.9,50.4-17,4.3-1.9,9-4.6,9.6-9.2,1.9-16.3-35-26.8-46.2-29.3-14.2-3.2-32.1-2.7-45.1-9.9-33.3-18.6,14.5-59,32-69,18.5-10.5,38.7-19,53.2-34.5,15.2-16.3,22.2-39.8,18.3-61.7-6.2-12.5-14.1-24.1-24.5-33.7-9.3-8.6-19.9-15.1-30.7-21.2-26.8-4.6-54.8,6.4-79.9,18.2-.1,0-.3.1-.4.2-16.3,7.7-32.7,16-45.4,28.6Z"/>
          <path class="cls-3" d="M899.7,7c-1.1,3-.8,6.1-.4,9.1.4,2.6.8,5.1,1.4,7.7,6.4,29.3,25.2,56.5,53,76.4,2.7,2,5.6,3.9,9.1,5,3.9,1.2,8.3,1.3,12.7,1,.7,0,1.4-.1,2.1-.2,29.2-2.9,56-20.1,65.5-41.9,5.1-11.6,6.8-25.8,20.3-32.5,9.6-4.8,21.6-3.7,32.8-4.9,6.5-.7,12.9-2.2,18.8-4.5,11.5-4.3,21.4-11.3,27.9-19.9.5-.7,1.1-1.5,1.5-2.2h-239.3c-2.4,2.1-4.3,4.3-5.3,7Z"/>
          <path class="cls-3" d="M1635.3,79c1.7,6.8,2.5,13.8,4.8,20.5,6.7,19.4,24.4,34.1,41.8,44.6,6.8,4.1,13.8,7.9,20.8,11.8,10.8,6.1,21.4,12.5,30.7,21.2,10.4,9.6,18.3,21.2,24.5,33.7,9.7,19.7,14.9,41.8,17.7,62.7,1.1,8.2,2,16.5,5.1,24.6,5.5,14.1,18.1,26.2,31.7,30.3,13.6,4.1,27.5.1,35-10,10.3-14,8.6-37.5,21.8-48.4,5.2-4.3,12-6.1,18.9-7.3,15-2.7,30.8-3.1,45.7-6.3,2-.4,3.9-.9,5.9-1.4.2-3.5,1-6.9,2.2-10.2,4.8-12.3,15.9-21.1,27.9-26.6,1.7-.8,3.4-1.5,5.1-2.1-2.1-7.4-7.9-14.5-13.9-20.1-26.6-24.2-62.5-31.4-88.9-55.8-25.1-23.1-37.5-58.6-37.3-90.1,0-14.8,2.6-29.7-2.2-44.7-.6-1.8-1.3-3.7-2.1-5.4h-249.2c.7.6,1.3,1.3,2,1.9,22.6,22,44.9,47.6,52.2,77.1Z"/>
          <path class="cls-2" d="M858.5,1939.7c-2.9-25.2-5.9-50.5-8.8-75.7-1.2-10-4-22.1-13.7-25-4-1.2-8.3-.3-12.4.8-25,7.2-45.8,27.7-53.4,52.6-1.7,5.7-2.8,11.6-3.3,17.5,5.7,20.5,7.8,41.9,6.2,63-.5,0-1,0-1.5,0,1.3,9,2.7,18,4.1,27h102.6c-4.3-5.7-8.1-11.8-10.9-18.5-5.6-13.1-7.3-27.6-9-41.8Z"/>
          <path class="cls-4" d="M771.7,1973c.5,0,1,0,1.5,0,1.6-21.2-.5-42.6-6.2-63-1.3-4.7-2.8-9.4-4.5-13.9-3.3-9.2-8.5-19.1-17.9-21.8-15.5-4.5-27.6,12.5-38,24.8-36.2,43.3-102.1,46-157.2,34.1-9.1-2-18.6-4.5-25.6-10.6-6.6-5.8-10.3-14.1-14.8-21.6-44.5-74.1-113.9-28-177.3-35.6-44.7-5.3-80.1-28.8-127.2-26.6-26.7,1.2-52.9,6.7-78.7,14-19.7,27.4-45.4,50.5-75,66.7-11.9,6.5-24.3,11.9-37,16.5.3,21.5,3.7,42.9,10.3,63.3,0,.3.2.6.3.8h152.7c17.3-5.3,34.8-9.5,52.5-10.1,20.2-.7,39.5,3.3,58.2,10.1h380.6c31.3-17.8,67.3-27.4,103.3-27Z"/>
          <path class="cls-4" d="M1423.3,1937.3c12.9,3.9,21.1,16,30,26.2,8.8,10.2,21.7,19.7,34.7,16,12.1-3.5,18.2-16.9,20.4-29.2,2.7-14.6,2-29.9-1.8-44.2-4-15-11.5-29.1-14.7-44.3-4.3-20.6-.3-41.9,3.6-62.5,1.9-10,4.5-21.1,12.9-27,18.3-12.7,37.6,4.1,43.1,20.8,6.6,20,19.6,39,43.3,38.5,4.5,0,9.4-1.1,12.5-4.5,1.7-1.9,2.7-4.4,3.6-6.8,12.8-36.9,5.2-80.3-19.6-110.5-11.9-14.5-28.4-26.5-47.1-27.6-16.8-1.1-33.2,6.8-45.9,17.9-12.7,11.1-22.3,25.2-31.7,39.2-14.3,21.2-28.5,42.4-42.8,63.5-7,10.4-14.6,21.3-26,26.5-25.3,11.7-56.4-9.5-82.3.8-12.4,5-21.1,16.4-27.5,28.2-6.4,11.8-11.3,24.5-19.6,35.1-8.2,10.6-20.9,19-34.2,17.7-13.3-1.4-25.1-15.9-19.9-28.3,2.4-5.7,7.5-9.7,11.8-14,20.6-20.7,25.1-55.5,10.5-80.8-5-8.7-11.9-16.2-16.4-25.1-4.5-8.9-6.4-20.2-1-28.6,6.4-10,19.5-11.7,31.1-15.6-30.3,1.4-60.3,9.3-87,23.7-16.1,8.6-31.3,19.5-47.6,27.6-3.9,15.5-3.4,32.9-.4,48.8,5.3,28,16.4,55.2,16.3,83.7-.1,26.1-9.7,51-14.8,76.6,5.5,3.1,11.4,6,17.9,8.5,4.8,1.9,10.4,4.2,10.9,8.4.2,1.5-.3,3-1.1,4.4h214.2c4.6-9.8,8.4-20.3,13.2-30,9.8-19.9,30.3-39.2,51.5-32.7Z"/>
          <path class="cls-4" d="M1255.3,1619.4c-13.2-1.5-28.3-2.3-38,6.8-4.7,4.4-7.4,10.5-9.8,16.5-1.4,3.5-2.8,7-4.2,10.6,27.2,3.2,54-.6,77-15.5,1.1-.7,2.1-1.4,3.2-2.1-.4-1.5-1-3-1.8-4.3-5.1-8.7-16.5-10.8-26.4-11.9Z"/>
          <path class="cls-3" d="M1145.5,1995.6c-.5-4.2-6.1-6.5-10.9-8.4-6.5-2.5-12.4-5.4-17.9-8.5-19.5-11.2-33.5-25.8-50.8-39.9-9.2-7.5-13.2-13.1-14.4-24.1-1.2-11,2.2-24.9-9.2-33.1-3.4-2.5-7.8-3.9-11.8-5.8-16.5-7.7-26.4-22.2-28.8-37.2-2.4-15,1.8-30.6,8.9-45,3.6-7.5,8.1-15.1,11.4-22.8-18.4-8-35.9-19.9-51.9-33.7-.9.3-1.8.7-2.7,1.1-14.3,6.2-23.6,17.6-31.3,28.8-14.6,21.3-26.2,44.2-29,67.8-2.8,23.7,3.9,48.3,22.7,66.3,12.8,12.3,32.1,23.7,29.9,39.9-1,7.6-6.9,14.4-12.6,20.8-9.9,11.2-20,22.6-33.1,31.7-3.1,2.2-6.4,4.3-9.2,6.7h239.3c.8-1.4,1.3-2.9,1.1-4.4Z"/>
          <path class="cls-3" d="M1774.4,1942.8c-6.4-1.2-12.5.1-18.5,1.5-22.6,5.3-44.7,12-67.6,16.5-14,2.8-33.8,10.2-48.6-1.1-5.9-4.5-10-11.3-15.4-16.6-9.9-9.8-23.3-13.9-33.8-23.1-13-11.4-22.2-30.8-37.6-34-9.5-2-17.4,3.3-24.3,8.5-6.7,4.9-14,11-13.8,20.4,0,5.5,2.7,11.2,5.7,16.4,15,26.7,38.6,47.4,60.6,68.7h249.2c-5.2-12-14.3-22.6-23.2-32.6-9.4-10.7-20.2-22.2-32.8-24.6Z"/>
          <path class="cls-3" d="M1334.6,1651.3c-.5-9.8-2.5-20.7-10.7-26.1-8.6-5.7-18.5-2.5-28,2.8-4.2,2.3-8.4,5.1-12.3,7.7-1.1.7-2.2,1.4-3.2,2.1-23,15-49.8,18.7-77,15.5-28.8-3.4-58-14.7-83.3-28.9-8.2-4.6-16.5-9.7-21.4-17.6-4.6-7.5-5.7-16.5-7.8-25-7.2-29-21.5-45.2-39.5-54.9-34-18.4-81.4-14.1-119.6-31-41.1-18.2-68.2-50.9-113.9-62.6-37.1-9.5-75.8-10.3-114-9.5-9.1.2-18.1.5-27.1.8-17.6.6-37,2-50.6,12.3-2,1.5-3.8,3.2-5.6,5.1-6.1,6.8-9.6,15.6-12.3,24.4-3.3,10.5-5.8,21.2-7.4,32.1-1.8,11.8-2.6,23.7-2.5,35.6,0,5.2.4,10.6,2.6,15.3,1.2,2.5,2.9,4.7,4.8,6.7,2,2,4.4,3.8,6.7,5.5,52,35.7,124.1,7.4,185,23.8,12.7,3.4,24.5,8.7,35.6,15.2,40.7,24,71.4,66,103.2,102.6,10.2,11.7,21.5,23.3,33.7,33.9,16,13.8,33.5,25.8,51.9,33.7,23.3,10.1,48,13.9,72.8,7.1,7.3-2,14.2-4.8,20.9-8.1,16.3-8,31.5-18.9,47.6-27.6,26.7-14.3,56.7-22.3,87-23.7,7.1-.3,14.1-.3,21.2.1,12.7.7,25.3,2.6,37.7,5.7,4.5,1.1,8.9,2.4,13.2,3.8,3.3-8.4,5.9-17.1,7.9-25.9,3.8-16.6,5.3-33.8,4.4-50.8Z"/>
          <path class="cls-3" d="M50.9,1919.3c29.6-16.2,55.3-39.3,75-66.7,9.6-13.3,17.7-27.7,24.2-42.8,5.7-13.3,10.2-27.3,18.8-38.9,13.8-18.5,36.2-28.3,58.2-35.4,32.3-10.5,66-16.9,99.9-19.1,34.5-2.2,69.2,0,103.6-3.8,34.3-3.8,69.3-14.2,94.6-37.8,0,0,0,0,0,0,3.1-2.9,6-6,7.7-9.8,3.4-7.8,1-16.7-1.4-24.9-2.7-9.2-5.9-19-11.3-26.7-2.6-3.7-5.7-7-9.5-9.5-1.3-.8-2.6-1.6-3.9-2.2-9.6-4.6-21.1-4.4-31.9-4.2-1,0-2.1,0-3.1,0-44.6,1.2-89.1,2.3-133.7,3.5-23.9.6-48.2,1.2-71.2-5.5-43.3-12.5-78.2-49.7-123.1-53.4-51.8-4.2-94.8,36.9-143.7,55v343.3c4.7-1.4,9.3-3,13.8-4.6,12.7-4.6,25.1-10,37-16.5Z"/>
          <path class="cls-4" d="M1921.6,526.7c-15.5,10.6-28.8,26.1-31.6,44.6-2.2,15,2.7,30.2,11,43,.9,1.5,1.9,2.9,2.9,4.3,10,13.6,23.2,24.3,36.4,34.9,2.7,2.2,5.5,4.4,8.2,6.6,17.1,13.8,34.3,27.6,51.4,41.5,0,0,0,0,0,0v-72.6c-9.1-2.7-18.5-6.3-23.1-14.4-10.8-18.9,6.5-36.3,23.1-40.9v-66.1c-27.3-3-55.7,3.5-78.4,19Z"/>
          <path class="cls-4" d="M1969.1,886.8c-9.1,4.2-17.1,10.4-26.4,14.2-9.3,3.8-20.7,4.6-28.6-1.5-11.6-8.9-9.7-26.6-15.4-40.1-9.7-22.8-38.6-29.1-63.2-32.3-6.2-.8-12.7-1.5-18.3,1.1-9.1,4.3-12.2,15.5-14.1,25.3-2.6,13-4.7,28,3.5,38.5,4,5.1,9.9,8.2,15.6,11.1,26.9,13.6,56.7,26,72.6,51.6,6.1,9.8,9.8,21.1,16.7,30.4,17.1,22.8,49.4,27.8,77.7,25,3.6-.4,7.2-.8,10.8-1.3v-128c-10.6-.5-21.3,1.3-30.9,5.8Z"/>
          <path class="cls-3" d="M1969.7,218.2c-12,5.5-23.1,14.3-27.9,26.6-1.3,3.2-2,6.7-2.2,10.2-.3,5.3.7,10.7,3.5,15.2,3.4,5.7,8.9,9.7,14.7,12.8,13.3,7.3,28.1,10.8,42.3,15.6v-90c-8.5,2.2-17.1,4.3-25.2,7.4-1.7.7-3.4,1.4-5.1,2.1Z"/>
          <path class="cls-2" d="M1787,1115.5c-15.2,6-30.1,12.9-44.6,20.5-10,5.3-20.2,11.3-28.2,19.2-3.6,3.5-6.8,7.5-9.3,11.9-12.8,22.4-5.8,51.1,7,73.5s30.9,41.5,42,64.8c3.7,7.9,6.7,16.5,5.4,25.1-1,7.3-5,13.8-8.8,20.1-26.1,42.6-58.3,89.5-107.7,96.8-26.6,4-53.4-4.7-80.2-5.2-26.9-.5-58.2,11.8-63.7,38.1-5.3,25.2,15.5,47.7,34.6,65,19.8,17.9,44.6,36.9,70.4,30.1,32.9-8.7,41.5-51.4,66.3-74.7,65.5-61.6,139.2,12.1,197,40.2,61.3,29.8,101.1-13.2,132.9-59.2v-396.5c-7.5-.6-15.1-1.2-22.6-1.6-64.8-3.2-130.2,7.8-190.5,31.7Z"/>
          <path class="cls-3" d="M1935.9,1605.8c-22-.2-44-.4-66-.6-6.3,0-12.7,0-18.5,2.2-5.8,2.3-10.5,6.7-15.1,11-34.5,32.8-65.8,68.9-69.6,118.5-3.3,43.6-11.9,89.9-7.4,133.5,1,9.3,2.5,18.7,6.6,27.2,6.2,13,17.7,22.7,29.8,30.4,53.7,33.8,122.8,33.5,184.3,18,6.7-1.7,13.3-3.5,19.9-5.6v-343.3c-8,3-16.2,5.3-24.6,6.7-13,2.2-26.3,2.1-39.5,2Z"/>
        </g>
      </g>
    </g>
  </g>
</svg>