<?xml version="1.0" encoding="UTF-8"?>
<svg xmlns="http://www.w3.org/2000/svg" version="1.1" viewBox="0 0 78 1000">
  <defs>
    <style>
      .cls-1 {
        fill: #ff8000;
      }
    </style>
  </defs>
  <!-- Generator: Adobe Illustrator 28.7.1, SVG Export Plug-In . SVG Version: 1.2.0 Build 142)  -->
  <g>
    <g id="Layer_1">
      <g>
        <path class="cls-1" d="M43.3,33.4c0-3.1-1.3-4.4-4-4.4s-5,2.8-5,11.9,1.3,11.8,5.5,11.8,4.1-1.3,4.5-4.9c-1.9,0-3.7,0-5.4.1,0-1.1,0-4,0-5.1,0-1.7,0-3.4,0-4.6,3.8.1,7.7.1,10.6.1s7.6,0,12-.1c1,19.1-2.5,26.3-22.3,26.3s-23.7-6.3-23.7-23.9,7.3-22.7,23.9-22.7,22.3,5.2,22.3,14.4,0,1.9-.1,2.9c-2.8,0-6.2-.1-9.6-.1s-6.4,0-8.7.1v-1.8Z"/>
        <path class="cls-1" d="M43.2,123.7c0-1.7-.2-4.6-.5-8.1h-9.1c-.4,3.4-.5,6.3-.6,8.1H14.2c2.8-11.3,8.2-39.1,9.1-45h30.9c1.1,6,6.6,33.6,9.6,45h-20.6ZM41.5,105.4c-.5-4.1-1.2-8.3-1.9-12.1-.6-2.5-1-5.4-1.4-7.7h-.3c-.4,2.3-.8,5.2-1.4,7.7-.7,3.8-1.3,8-1.8,12.1h6.7Z"/>
        <path class="cls-1" d="M50.5,165.3c6.5.9,9.2,2.8,10.4,9.2.5,2.9,1.1,7,1.6,9.2h-15.7c-2.6,0-3.4-1-3.9-4.8-.9-7.9-1.5-9.5-4.4-9.5s-2,0-3.2,0c.1,5.7.4,10.7.7,14.2h-18.6c0-6.5.2-12.9.2-22.5s0-16-.2-22.5h26.6c11,0,17.2,3.4,17.2,13.1s-2.9,12-10.7,13v.4ZM43.4,154.7c0-4.3-1.4-5.3-4.6-5.3-.8,0-2.3,0-3.8,0,0,3.5,0,7.1,0,10.6,1.2,0,2.6,0,4.3,0,2.8,0,4-1.5,4-5.4Z"/>
        <path class="cls-1" d="M57.6,198.7c0,1.4-.1,4-.1,6s0,4.9.1,6.4c-6.3-.1-13-.1-18.2-.1v4.4c6.1,0,12.5,0,17.7-.2,0,2.5-.1,7.9,0,10.6-5-.1-11.6-.2-17.6-.2v4.6c5.4,0,12.4,0,18.2-.1,0,1.7,0,4.6,0,7s0,4.9,0,6.7H20.9c.2-6.3.2-12.9.2-22.5s0-16.3-.2-22.5h36.7Z"/>
        <path class="cls-1" d="M57,258.7c-.1,2.1-.1,5.4-.1,8.3s0,6.4.1,8.7c-2.8,0-5.5,0-8.1-.1,0,13,.1,25.2.2,28.1-2.6-.2-7-.2-10.1-.2s-7.4,0-10.1.2c.1-2.9.2-15.1.3-28.1-2.6,0-5.4,0-8.2.1,0-2.3,0-5.8,0-8.7s0-6.2,0-8.3h36Z"/>
        <path class="cls-1" d="M61.7,318.7c-.2,6.4-.2,13-.2,22.5s0,16,.2,22.5h-18.7c.1-4.1.2-10,.2-15-1.3,0-2.8,0-4.1,0s-2.9,0-4.2,0c0,5,0,10.9.2,15h-18.7c.2-6.5.2-13,.2-22.5s0-16.1-.2-22.5h18.7c-.1,4.1-.2,10-.2,15.2,1.3,0,2.8,0,4.2,0s2.8,0,4.1,0c0-5.2,0-11.1-.2-15.2h18.7Z"/>
        <path class="cls-1" d="M51.8,415.2c1.5.1,2.8.3,3.8.6,4.8,1.4,6.3,4.7,6.3,10.4,0,8.6-4,11.8-14.8,11.8h-29.8c.2-6.4.3-13,.3-22.5s0-16.2-.3-22.5h29.3c9.3,0,14.9,2.6,14.9,11.8s-1.4,7.7-5.6,9.3c-1.1.4-2.5.6-4,.8v.3ZM39.6,402.4c-1.4,0-2.9,0-4.5.1,0,2.5,0,5.6,0,8.9,1.6,0,3.1,0,4.4,0,2.8,0,4.1-1.4,4.1-4.9s-1.3-4.1-4-4.1ZM43.7,423.3c0-3.4-1.3-4.5-4.2-4.5s-2.9,0-4.5.1c0,3.1,0,6.2,0,8.8,1.7.1,3.2.1,4.5.1,2.9,0,4.1-1.1,4.1-4.6Z"/>
        <path class="cls-1" d="M38.8,498.9c-17,0-23.8-7-23.8-24.3s7.8-22.3,23.8-22.3,24.2,5.2,24.2,22.3-7.1,24.3-24.2,24.3ZM43.9,474.5c0-7.4-1.6-9.5-5-9.5s-5,2.1-5,9.5,1.6,10.4,5,10.4,5-2.5,5-10.4Z"/>
        <path class="cls-1" d="M61.6,513.1c-.2,4.1-.2,8.2-.2,14.3s.1,9.8.1,13.9c0,12.2-4.9,17.6-22.4,17.6s-22.4-5.4-22.4-17.6,0-10.1,0-13.9c0-6.1-.1-10.2-.2-14.3h19c-.1,7.8-.2,19.2-.2,26.2s1.3,5.1,4.3,5.1,4.1-1.6,4.1-5.1c0-7-.1-18.4-.2-26.2h18.2Z"/>
        <path class="cls-1" d="M43.3,587.8c0-3.1-1.3-4.4-4-4.4s-5,2.8-5,11.9,1.3,11.8,5.5,11.8,4.1-1.3,4.5-4.9c-1.9,0-3.7,0-5.4.1,0-1.1,0-4,0-5.1,0-1.7,0-3.4,0-4.6,3.8.1,7.7.1,10.6.1s7.6,0,12-.1c1,19.1-2.5,26.3-22.3,26.3s-23.7-6.3-23.7-23.9,7.3-22.7,23.9-22.7,22.3,5.2,22.3,14.4,0,1.9-.1,2.9c-2.8,0-6.2-.1-9.6-.1s-6.4,0-8.7.1v-1.8Z"/>
        <path class="cls-1" d="M61.7,633.1c-.2,6.4-.2,13-.2,22.5s0,16,.2,22.5h-18.7c.1-4.1.2-10,.2-15-1.3,0-2.8,0-4.1,0s-2.9,0-4.2,0c0,5,0,10.9.2,15h-18.7c.2-6.5.2-13,.2-22.5s0-16.1-.2-22.5h18.7c-.1,4.1-.2,10-.2,15.2,1.3,0,2.8,0,4.2,0s2.8,0,4.1,0c0-5.2,0-11.1-.2-15.2h18.7Z"/>
        <path class="cls-1" d="M57,693.1c-.1,2.1-.1,5.4-.1,8.3s0,6.4.1,8.7c-2.8,0-5.5,0-8.1-.1,0,13,.1,25.2.2,28.1-2.6-.2-7-.2-10.1-.2s-7.4,0-10.1.2c.1-2.9.2-15.1.3-28.1-2.6,0-5.4,0-8.2.1,0-2.3,0-5.8,0-8.7s0-6.2,0-8.3h36Z"/>
        <path class="cls-1" d="M71.3,753.1c-2.3,11-6.8,39.2-7.7,45-2.5,0-6.2-.1-10.3-.1-5.9,0-9.7,0-11.3.1-.4-2.9-1.1-9.7-2-16.6-.3-3.4-.6-7.3-.9-11h-.4c-.3,3.8-.7,7.8-1.1,11.1-.9,6.6-1.9,13.4-2.2,16.4-2.2,0-6.4-.1-10.6-.1s-8.6,0-10.1.1c-1.1-6.6-5.5-34.1-7.9-45h18.9c.1,3,1,14.4,2,22.4.2,2.2.5,4.7.8,6.9h.4c.2-2.2.5-4.7.8-7,1.1-8,2.4-18.5,2.5-22.3,2.3,0,7.1.1,9.7.1s7.1-.1,9.3-.1c.2,3.3,1,14.3,2,22.4.4,2.4.7,4.9.9,7h.3c.2-2.2.5-4.7.8-7,1-8.2,2.2-18.6,2.3-22.4h13.7Z"/>
        <path class="cls-1" d="M38.8,858.9c-17,0-23.8-7-23.8-24.3s7.8-22.3,23.8-22.3,24.2,5.2,24.2,22.3-7.1,24.3-24.2,24.3ZM43.9,834.5c0-7.4-1.6-9.5-5-9.5s-5,2.1-5,9.5,1.6,10.4,5,10.4,5-2.5,5-10.4Z"/>
        <path class="cls-1" d="M38.8,918.9c-17,0-23.8-7-23.8-24.3s7.8-22.3,23.8-22.3,24.2,5.2,24.2,22.3-7.1,24.3-24.2,24.3ZM43.9,894.5c0-7.4-1.6-9.5-5-9.5s-5,2.1-5,9.5,1.6,10.4,5,10.4,5-2.5,5-10.4Z"/>
        <path class="cls-1" d="M40.9,933.1c14.8,0,21.5,3.5,21.5,20.7s-5.8,24.3-21.7,24.3h-23.6c.1-6.4.2-12.9.2-22.4s0-16.4-.2-22.6h23.8ZM44,954.7c0-8.6-1.6-9.7-5.5-9.7s-2.1,0-3.1,0c-.1,3.4-.1,6.8-.1,10.4s0,6.8,0,9.2c1,0,2,0,3.1,0,3.9,0,5.5-1.3,5.5-10Z"/>
      </g>
    </g>
  </g>
</svg>